<mxfile host="app.diagrams.net" modified="2020-12-04T11:37:03.369Z" agent="5.0 (Windows NT 10.0; Win64; x64) AppleWebKit/537.36 (KHTML, like Gecko) Chrome/87.0.4280.88 Safari/537.36" etag="RmlsbcEWJZmElO8kwpiO" version="13.10.8" type="github">
  <diagram id="R2lEEEUBdFMjLlhIrx00" name="Page-1">
    <mxGraphModel dx="868" dy="450" grid="1" gridSize="10" guides="1" tooltips="1" connect="1" arrows="1" fold="1" page="1" pageScale="1" pageWidth="850" pageHeight="1100" math="0" shadow="0" extFonts="Permanent Marker^https://fonts.googleapis.com/css?family=Permanent+Marker">
      <root>
        <mxCell id="0" />
        <mxCell id="1" parent="0" />
        <mxCell id="pFVaxG2ovcDRRp4HrHUz-8" value="" style="shape=table;html=1;whiteSpace=wrap;startSize=0;container=1;collapsible=0;childLayout=tableLayout;" vertex="1" parent="1">
          <mxGeometry x="10" y="40" width="360" height="160" as="geometry" />
        </mxCell>
        <mxCell id="pFVaxG2ovcDRRp4HrHUz-9" value="" style="shape=partialRectangle;html=1;whiteSpace=wrap;collapsible=0;dropTarget=0;pointerEvents=0;fillColor=none;top=0;left=0;bottom=0;right=0;points=[[0,0.5],[1,0.5]];portConstraint=eastwest;" vertex="1" parent="pFVaxG2ovcDRRp4HrHUz-8">
          <mxGeometry width="360" height="40" as="geometry" />
        </mxCell>
        <mxCell id="pFVaxG2ovcDRRp4HrHUz-10" value="ID" style="shape=partialRectangle;html=1;whiteSpace=wrap;connectable=0;overflow=hidden;fillColor=none;top=0;left=0;bottom=0;right=0;fontStyle=5" vertex="1" parent="pFVaxG2ovcDRRp4HrHUz-9">
          <mxGeometry width="40" height="40" as="geometry" />
        </mxCell>
        <mxCell id="pFVaxG2ovcDRRp4HrHUz-11" value="Name" style="shape=partialRectangle;html=1;whiteSpace=wrap;connectable=0;overflow=hidden;fillColor=none;top=0;left=0;bottom=0;right=0;" vertex="1" parent="pFVaxG2ovcDRRp4HrHUz-9">
          <mxGeometry x="40" width="120" height="40" as="geometry" />
        </mxCell>
        <mxCell id="pFVaxG2ovcDRRp4HrHUz-12" value="Date of birth" style="shape=partialRectangle;html=1;whiteSpace=wrap;connectable=0;overflow=hidden;fillColor=none;top=0;left=0;bottom=0;right=0;fontStyle=0" vertex="1" parent="pFVaxG2ovcDRRp4HrHUz-9">
          <mxGeometry x="160" width="50" height="40" as="geometry" />
        </mxCell>
        <mxCell id="pFVaxG2ovcDRRp4HrHUz-13" value="Weight" style="shape=partialRectangle;html=1;whiteSpace=wrap;connectable=0;overflow=hidden;fillColor=none;top=0;left=0;bottom=0;right=0;" vertex="1" parent="pFVaxG2ovcDRRp4HrHUz-9">
          <mxGeometry x="210" width="50" height="40" as="geometry" />
        </mxCell>
        <mxCell id="pFVaxG2ovcDRRp4HrHUz-14" value="Height" style="shape=partialRectangle;html=1;whiteSpace=wrap;connectable=0;overflow=hidden;fillColor=none;top=0;left=0;bottom=0;right=0;" vertex="1" parent="pFVaxG2ovcDRRp4HrHUz-9">
          <mxGeometry x="260" width="50" height="40" as="geometry" />
        </mxCell>
        <mxCell id="pFVaxG2ovcDRRp4HrHUz-15" value="Gender" style="shape=partialRectangle;html=1;whiteSpace=wrap;connectable=0;overflow=hidden;fillColor=none;top=0;left=0;bottom=0;right=0;" vertex="1" parent="pFVaxG2ovcDRRp4HrHUz-9">
          <mxGeometry x="310" width="50" height="40" as="geometry" />
        </mxCell>
        <mxCell id="pFVaxG2ovcDRRp4HrHUz-16" value="" style="shape=partialRectangle;html=1;whiteSpace=wrap;collapsible=0;dropTarget=0;pointerEvents=0;fillColor=none;top=0;left=0;bottom=0;right=0;points=[[0,0.5],[1,0.5]];portConstraint=eastwest;" vertex="1" parent="pFVaxG2ovcDRRp4HrHUz-8">
          <mxGeometry y="40" width="360" height="40" as="geometry" />
        </mxCell>
        <mxCell id="pFVaxG2ovcDRRp4HrHUz-17" value="500" style="shape=partialRectangle;html=1;whiteSpace=wrap;connectable=0;overflow=hidden;fillColor=none;top=0;left=0;bottom=0;right=0;" vertex="1" parent="pFVaxG2ovcDRRp4HrHUz-16">
          <mxGeometry width="40" height="40" as="geometry" />
        </mxCell>
        <mxCell id="pFVaxG2ovcDRRp4HrHUz-18" value="Abigail Jackson" style="shape=partialRectangle;html=1;whiteSpace=wrap;connectable=0;overflow=hidden;fillColor=none;top=0;left=0;bottom=0;right=0;" vertex="1" parent="pFVaxG2ovcDRRp4HrHUz-16">
          <mxGeometry x="40" width="120" height="40" as="geometry" />
        </mxCell>
        <mxCell id="pFVaxG2ovcDRRp4HrHUz-19" value="1988-05-14" style="shape=partialRectangle;html=1;whiteSpace=wrap;connectable=0;overflow=hidden;fillColor=none;top=0;left=0;bottom=0;right=0;" vertex="1" parent="pFVaxG2ovcDRRp4HrHUz-16">
          <mxGeometry x="160" width="50" height="40" as="geometry" />
        </mxCell>
        <mxCell id="pFVaxG2ovcDRRp4HrHUz-20" value="55kg" style="shape=partialRectangle;html=1;whiteSpace=wrap;connectable=0;overflow=hidden;fillColor=none;top=0;left=0;bottom=0;right=0;" vertex="1" parent="pFVaxG2ovcDRRp4HrHUz-16">
          <mxGeometry x="210" width="50" height="40" as="geometry" />
        </mxCell>
        <mxCell id="pFVaxG2ovcDRRp4HrHUz-21" value="1,74m" style="shape=partialRectangle;html=1;whiteSpace=wrap;connectable=0;overflow=hidden;fillColor=none;top=0;left=0;bottom=0;right=0;" vertex="1" parent="pFVaxG2ovcDRRp4HrHUz-16">
          <mxGeometry x="260" width="50" height="40" as="geometry" />
        </mxCell>
        <mxCell id="pFVaxG2ovcDRRp4HrHUz-22" value="Female" style="shape=partialRectangle;html=1;whiteSpace=wrap;connectable=0;overflow=hidden;fillColor=none;top=0;left=0;bottom=0;right=0;" vertex="1" parent="pFVaxG2ovcDRRp4HrHUz-16">
          <mxGeometry x="310" width="50" height="40" as="geometry" />
        </mxCell>
        <mxCell id="pFVaxG2ovcDRRp4HrHUz-23" value="" style="shape=partialRectangle;html=1;whiteSpace=wrap;collapsible=0;dropTarget=0;pointerEvents=0;fillColor=none;top=0;left=0;bottom=0;right=0;points=[[0,0.5],[1,0.5]];portConstraint=eastwest;" vertex="1" parent="pFVaxG2ovcDRRp4HrHUz-8">
          <mxGeometry y="80" width="360" height="40" as="geometry" />
        </mxCell>
        <mxCell id="pFVaxG2ovcDRRp4HrHUz-24" value="433" style="shape=partialRectangle;html=1;whiteSpace=wrap;connectable=0;overflow=hidden;fillColor=none;top=0;left=0;bottom=0;right=0;" vertex="1" parent="pFVaxG2ovcDRRp4HrHUz-23">
          <mxGeometry width="40" height="40" as="geometry" />
        </mxCell>
        <mxCell id="pFVaxG2ovcDRRp4HrHUz-25" value="Ebni Moting" style="shape=partialRectangle;html=1;whiteSpace=wrap;connectable=0;overflow=hidden;fillColor=none;top=0;left=0;bottom=0;right=0;" vertex="1" parent="pFVaxG2ovcDRRp4HrHUz-23">
          <mxGeometry x="40" width="120" height="40" as="geometry" />
        </mxCell>
        <mxCell id="pFVaxG2ovcDRRp4HrHUz-26" value="1990-03-22" style="shape=partialRectangle;html=1;whiteSpace=wrap;connectable=0;overflow=hidden;fillColor=none;top=0;left=0;bottom=0;right=0;" vertex="1" parent="pFVaxG2ovcDRRp4HrHUz-23">
          <mxGeometry x="160" width="50" height="40" as="geometry" />
        </mxCell>
        <mxCell id="pFVaxG2ovcDRRp4HrHUz-27" value="82kg" style="shape=partialRectangle;html=1;whiteSpace=wrap;connectable=0;overflow=hidden;fillColor=none;top=0;left=0;bottom=0;right=0;" vertex="1" parent="pFVaxG2ovcDRRp4HrHUz-23">
          <mxGeometry x="210" width="50" height="40" as="geometry" />
        </mxCell>
        <mxCell id="pFVaxG2ovcDRRp4HrHUz-28" value="1,91m" style="shape=partialRectangle;html=1;whiteSpace=wrap;connectable=0;overflow=hidden;fillColor=none;top=0;left=0;bottom=0;right=0;" vertex="1" parent="pFVaxG2ovcDRRp4HrHUz-23">
          <mxGeometry x="260" width="50" height="40" as="geometry" />
        </mxCell>
        <mxCell id="pFVaxG2ovcDRRp4HrHUz-29" value="Male" style="shape=partialRectangle;html=1;whiteSpace=wrap;connectable=0;overflow=hidden;fillColor=none;top=0;left=0;bottom=0;right=0;" vertex="1" parent="pFVaxG2ovcDRRp4HrHUz-23">
          <mxGeometry x="310" width="50" height="40" as="geometry" />
        </mxCell>
        <mxCell id="pFVaxG2ovcDRRp4HrHUz-30" value="" style="shape=partialRectangle;html=1;whiteSpace=wrap;collapsible=0;dropTarget=0;pointerEvents=0;fillColor=none;top=0;left=0;bottom=0;right=0;points=[[0,0.5],[1,0.5]];portConstraint=eastwest;" vertex="1" parent="pFVaxG2ovcDRRp4HrHUz-8">
          <mxGeometry y="120" width="360" height="40" as="geometry" />
        </mxCell>
        <mxCell id="pFVaxG2ovcDRRp4HrHUz-31" value="125" style="shape=partialRectangle;html=1;whiteSpace=wrap;connectable=0;overflow=hidden;fillColor=none;top=0;left=0;bottom=0;right=0;" vertex="1" parent="pFVaxG2ovcDRRp4HrHUz-30">
          <mxGeometry width="40" height="40" as="geometry" />
        </mxCell>
        <mxCell id="pFVaxG2ovcDRRp4HrHUz-32" value="Samuel Umttiti" style="shape=partialRectangle;html=1;whiteSpace=wrap;connectable=0;overflow=hidden;fillColor=none;top=0;left=0;bottom=0;right=0;" vertex="1" parent="pFVaxG2ovcDRRp4HrHUz-30">
          <mxGeometry x="40" width="120" height="40" as="geometry" />
        </mxCell>
        <mxCell id="pFVaxG2ovcDRRp4HrHUz-33" value="2000-01-02" style="shape=partialRectangle;html=1;whiteSpace=wrap;connectable=0;overflow=hidden;fillColor=none;top=0;left=0;bottom=0;right=0;" vertex="1" parent="pFVaxG2ovcDRRp4HrHUz-30">
          <mxGeometry x="160" width="50" height="40" as="geometry" />
        </mxCell>
        <mxCell id="pFVaxG2ovcDRRp4HrHUz-34" value="103kg" style="shape=partialRectangle;html=1;whiteSpace=wrap;connectable=0;overflow=hidden;fillColor=none;top=0;left=0;bottom=0;right=0;" vertex="1" parent="pFVaxG2ovcDRRp4HrHUz-30">
          <mxGeometry x="210" width="50" height="40" as="geometry" />
        </mxCell>
        <mxCell id="pFVaxG2ovcDRRp4HrHUz-35" value="2,11m" style="shape=partialRectangle;html=1;whiteSpace=wrap;connectable=0;overflow=hidden;fillColor=none;top=0;left=0;bottom=0;right=0;" vertex="1" parent="pFVaxG2ovcDRRp4HrHUz-30">
          <mxGeometry x="260" width="50" height="40" as="geometry" />
        </mxCell>
        <mxCell id="pFVaxG2ovcDRRp4HrHUz-36" value="Male" style="shape=partialRectangle;html=1;whiteSpace=wrap;connectable=0;overflow=hidden;fillColor=none;top=0;left=0;bottom=0;right=0;" vertex="1" parent="pFVaxG2ovcDRRp4HrHUz-30">
          <mxGeometry x="310" width="50" height="40" as="geometry" />
        </mxCell>
        <mxCell id="pFVaxG2ovcDRRp4HrHUz-37" value="" style="shape=table;html=1;whiteSpace=wrap;startSize=0;container=1;collapsible=0;childLayout=tableLayout;fontStyle=5" vertex="1" parent="1">
          <mxGeometry x="400" y="40" width="140" height="160" as="geometry" />
        </mxCell>
        <mxCell id="pFVaxG2ovcDRRp4HrHUz-38" value="" style="shape=partialRectangle;html=1;whiteSpace=wrap;collapsible=0;dropTarget=0;pointerEvents=0;fillColor=none;top=0;left=0;bottom=0;right=0;points=[[0,0.5],[1,0.5]];portConstraint=eastwest;" vertex="1" parent="pFVaxG2ovcDRRp4HrHUz-37">
          <mxGeometry width="140" height="40" as="geometry" />
        </mxCell>
        <mxCell id="pFVaxG2ovcDRRp4HrHUz-39" value="ID" style="shape=partialRectangle;html=1;whiteSpace=wrap;connectable=0;overflow=hidden;fillColor=none;top=0;left=0;bottom=0;right=0;fontStyle=5" vertex="1" parent="pFVaxG2ovcDRRp4HrHUz-38">
          <mxGeometry width="40" height="40" as="geometry" />
        </mxCell>
        <mxCell id="pFVaxG2ovcDRRp4HrHUz-40" value="EventID" style="shape=partialRectangle;html=1;whiteSpace=wrap;connectable=0;overflow=hidden;fillColor=none;top=0;left=0;bottom=0;right=0;fontStyle=5" vertex="1" parent="pFVaxG2ovcDRRp4HrHUz-38">
          <mxGeometry x="40" width="50" height="40" as="geometry" />
        </mxCell>
        <mxCell id="pFVaxG2ovcDRRp4HrHUz-41" value="&lt;u&gt;OlyID&lt;/u&gt;" style="shape=partialRectangle;html=1;whiteSpace=wrap;connectable=0;overflow=hidden;fillColor=none;top=0;left=0;bottom=0;right=0;fontStyle=1" vertex="1" parent="pFVaxG2ovcDRRp4HrHUz-38">
          <mxGeometry x="90" width="50" height="40" as="geometry" />
        </mxCell>
        <mxCell id="pFVaxG2ovcDRRp4HrHUz-42" value="" style="shape=partialRectangle;html=1;whiteSpace=wrap;collapsible=0;dropTarget=0;pointerEvents=0;fillColor=none;top=0;left=0;bottom=0;right=0;points=[[0,0.5],[1,0.5]];portConstraint=eastwest;" vertex="1" parent="pFVaxG2ovcDRRp4HrHUz-37">
          <mxGeometry y="40" width="140" height="40" as="geometry" />
        </mxCell>
        <mxCell id="pFVaxG2ovcDRRp4HrHUz-43" value="500" style="shape=partialRectangle;html=1;whiteSpace=wrap;connectable=0;overflow=hidden;fillColor=none;top=0;left=0;bottom=0;right=0;" vertex="1" parent="pFVaxG2ovcDRRp4HrHUz-42">
          <mxGeometry width="40" height="40" as="geometry" />
        </mxCell>
        <mxCell id="pFVaxG2ovcDRRp4HrHUz-44" value="244" style="shape=partialRectangle;html=1;whiteSpace=wrap;connectable=0;overflow=hidden;fillColor=none;top=0;left=0;bottom=0;right=0;" vertex="1" parent="pFVaxG2ovcDRRp4HrHUz-42">
          <mxGeometry x="40" width="50" height="40" as="geometry" />
        </mxCell>
        <mxCell id="pFVaxG2ovcDRRp4HrHUz-45" value="50" style="shape=partialRectangle;html=1;whiteSpace=wrap;connectable=0;overflow=hidden;fillColor=none;top=0;left=0;bottom=0;right=0;" vertex="1" parent="pFVaxG2ovcDRRp4HrHUz-42">
          <mxGeometry x="90" width="50" height="40" as="geometry" />
        </mxCell>
        <mxCell id="pFVaxG2ovcDRRp4HrHUz-46" value="" style="shape=partialRectangle;html=1;whiteSpace=wrap;collapsible=0;dropTarget=0;pointerEvents=0;fillColor=none;top=0;left=0;bottom=0;right=0;points=[[0,0.5],[1,0.5]];portConstraint=eastwest;" vertex="1" parent="pFVaxG2ovcDRRp4HrHUz-37">
          <mxGeometry y="80" width="140" height="40" as="geometry" />
        </mxCell>
        <mxCell id="pFVaxG2ovcDRRp4HrHUz-47" value="469" style="shape=partialRectangle;html=1;whiteSpace=wrap;connectable=0;overflow=hidden;fillColor=none;top=0;left=0;bottom=0;right=0;" vertex="1" parent="pFVaxG2ovcDRRp4HrHUz-46">
          <mxGeometry width="40" height="40" as="geometry" />
        </mxCell>
        <mxCell id="pFVaxG2ovcDRRp4HrHUz-48" value="155" style="shape=partialRectangle;html=1;whiteSpace=wrap;connectable=0;overflow=hidden;fillColor=none;top=0;left=0;bottom=0;right=0;" vertex="1" parent="pFVaxG2ovcDRRp4HrHUz-46">
          <mxGeometry x="40" width="50" height="40" as="geometry" />
        </mxCell>
        <mxCell id="pFVaxG2ovcDRRp4HrHUz-49" value="22" style="shape=partialRectangle;html=1;whiteSpace=wrap;connectable=0;overflow=hidden;fillColor=none;top=0;left=0;bottom=0;right=0;" vertex="1" parent="pFVaxG2ovcDRRp4HrHUz-46">
          <mxGeometry x="90" width="50" height="40" as="geometry" />
        </mxCell>
        <mxCell id="pFVaxG2ovcDRRp4HrHUz-50" value="" style="shape=partialRectangle;html=1;whiteSpace=wrap;collapsible=0;dropTarget=0;pointerEvents=0;fillColor=none;top=0;left=0;bottom=0;right=0;points=[[0,0.5],[1,0.5]];portConstraint=eastwest;" vertex="1" parent="pFVaxG2ovcDRRp4HrHUz-37">
          <mxGeometry y="120" width="140" height="40" as="geometry" />
        </mxCell>
        <mxCell id="pFVaxG2ovcDRRp4HrHUz-51" value="245" style="shape=partialRectangle;html=1;whiteSpace=wrap;connectable=0;overflow=hidden;fillColor=none;top=0;left=0;bottom=0;right=0;" vertex="1" parent="pFVaxG2ovcDRRp4HrHUz-50">
          <mxGeometry width="40" height="40" as="geometry" />
        </mxCell>
        <mxCell id="pFVaxG2ovcDRRp4HrHUz-52" value="144" style="shape=partialRectangle;html=1;whiteSpace=wrap;connectable=0;overflow=hidden;fillColor=none;top=0;left=0;bottom=0;right=0;" vertex="1" parent="pFVaxG2ovcDRRp4HrHUz-50">
          <mxGeometry x="40" width="50" height="40" as="geometry" />
        </mxCell>
        <mxCell id="pFVaxG2ovcDRRp4HrHUz-53" value="11" style="shape=partialRectangle;html=1;whiteSpace=wrap;connectable=0;overflow=hidden;fillColor=none;top=0;left=0;bottom=0;right=0;" vertex="1" parent="pFVaxG2ovcDRRp4HrHUz-50">
          <mxGeometry x="90" width="50" height="40" as="geometry" />
        </mxCell>
        <mxCell id="pFVaxG2ovcDRRp4HrHUz-54" value="" style="shape=table;html=1;whiteSpace=wrap;startSize=0;container=1;collapsible=0;childLayout=tableLayout;" vertex="1" parent="1">
          <mxGeometry x="560" y="40" width="230" height="160" as="geometry" />
        </mxCell>
        <mxCell id="pFVaxG2ovcDRRp4HrHUz-55" value="" style="shape=partialRectangle;html=1;whiteSpace=wrap;collapsible=0;dropTarget=0;pointerEvents=0;fillColor=none;top=0;left=0;bottom=0;right=0;points=[[0,0.5],[1,0.5]];portConstraint=eastwest;" vertex="1" parent="pFVaxG2ovcDRRp4HrHUz-54">
          <mxGeometry width="230" height="40" as="geometry" />
        </mxCell>
        <mxCell id="pFVaxG2ovcDRRp4HrHUz-56" value="OlyID" style="shape=partialRectangle;html=1;whiteSpace=wrap;connectable=0;overflow=hidden;fillColor=none;top=0;left=0;bottom=0;right=0;fontStyle=5" vertex="1" parent="pFVaxG2ovcDRRp4HrHUz-55">
          <mxGeometry width="60" height="40" as="geometry" />
        </mxCell>
        <mxCell id="pFVaxG2ovcDRRp4HrHUz-57" value="&lt;b&gt;Country&lt;br&gt;Code&lt;/b&gt;" style="shape=partialRectangle;html=1;whiteSpace=wrap;connectable=0;overflow=hidden;fillColor=none;top=0;left=0;bottom=0;right=0;fontStyle=4" vertex="1" parent="pFVaxG2ovcDRRp4HrHUz-55">
          <mxGeometry x="60" width="60" height="40" as="geometry" />
        </mxCell>
        <mxCell id="pFVaxG2ovcDRRp4HrHUz-58" value="Year" style="shape=partialRectangle;html=1;whiteSpace=wrap;connectable=0;overflow=hidden;fillColor=none;top=0;left=0;bottom=0;right=0;" vertex="1" parent="pFVaxG2ovcDRRp4HrHUz-55">
          <mxGeometry x="120" width="50" height="40" as="geometry" />
        </mxCell>
        <mxCell id="pFVaxG2ovcDRRp4HrHUz-59" value="Season" style="shape=partialRectangle;html=1;whiteSpace=wrap;connectable=0;overflow=hidden;fillColor=none;top=0;left=0;bottom=0;right=0;" vertex="1" parent="pFVaxG2ovcDRRp4HrHUz-55">
          <mxGeometry x="170" width="60" height="40" as="geometry" />
        </mxCell>
        <mxCell id="pFVaxG2ovcDRRp4HrHUz-60" value="" style="shape=partialRectangle;html=1;whiteSpace=wrap;collapsible=0;dropTarget=0;pointerEvents=0;fillColor=none;top=0;left=0;bottom=0;right=0;points=[[0,0.5],[1,0.5]];portConstraint=eastwest;" vertex="1" parent="pFVaxG2ovcDRRp4HrHUz-54">
          <mxGeometry y="40" width="230" height="40" as="geometry" />
        </mxCell>
        <mxCell id="pFVaxG2ovcDRRp4HrHUz-61" value="50" style="shape=partialRectangle;html=1;whiteSpace=wrap;connectable=0;overflow=hidden;fillColor=none;top=0;left=0;bottom=0;right=0;" vertex="1" parent="pFVaxG2ovcDRRp4HrHUz-60">
          <mxGeometry width="60" height="40" as="geometry" />
        </mxCell>
        <mxCell id="pFVaxG2ovcDRRp4HrHUz-62" value="CHI" style="shape=partialRectangle;html=1;whiteSpace=wrap;connectable=0;overflow=hidden;fillColor=none;top=0;left=0;bottom=0;right=0;" vertex="1" parent="pFVaxG2ovcDRRp4HrHUz-60">
          <mxGeometry x="60" width="60" height="40" as="geometry" />
        </mxCell>
        <mxCell id="pFVaxG2ovcDRRp4HrHUz-63" value="2008" style="shape=partialRectangle;html=1;whiteSpace=wrap;connectable=0;overflow=hidden;fillColor=none;top=0;left=0;bottom=0;right=0;" vertex="1" parent="pFVaxG2ovcDRRp4HrHUz-60">
          <mxGeometry x="120" width="50" height="40" as="geometry" />
        </mxCell>
        <mxCell id="pFVaxG2ovcDRRp4HrHUz-64" value="Summer" style="shape=partialRectangle;html=1;whiteSpace=wrap;connectable=0;overflow=hidden;fillColor=none;top=0;left=0;bottom=0;right=0;" vertex="1" parent="pFVaxG2ovcDRRp4HrHUz-60">
          <mxGeometry x="170" width="60" height="40" as="geometry" />
        </mxCell>
        <mxCell id="pFVaxG2ovcDRRp4HrHUz-65" value="" style="shape=partialRectangle;html=1;whiteSpace=wrap;collapsible=0;dropTarget=0;pointerEvents=0;fillColor=none;top=0;left=0;bottom=0;right=0;points=[[0,0.5],[1,0.5]];portConstraint=eastwest;" vertex="1" parent="pFVaxG2ovcDRRp4HrHUz-54">
          <mxGeometry y="80" width="230" height="40" as="geometry" />
        </mxCell>
        <mxCell id="pFVaxG2ovcDRRp4HrHUz-66" value="48" style="shape=partialRectangle;html=1;whiteSpace=wrap;connectable=0;overflow=hidden;fillColor=none;top=0;left=0;bottom=0;right=0;" vertex="1" parent="pFVaxG2ovcDRRp4HrHUz-65">
          <mxGeometry width="60" height="40" as="geometry" />
        </mxCell>
        <mxCell id="pFVaxG2ovcDRRp4HrHUz-67" value="CAN" style="shape=partialRectangle;html=1;whiteSpace=wrap;connectable=0;overflow=hidden;fillColor=none;top=0;left=0;bottom=0;right=0;" vertex="1" parent="pFVaxG2ovcDRRp4HrHUz-65">
          <mxGeometry x="60" width="60" height="40" as="geometry" />
        </mxCell>
        <mxCell id="pFVaxG2ovcDRRp4HrHUz-68" value="2010" style="shape=partialRectangle;html=1;whiteSpace=wrap;connectable=0;overflow=hidden;fillColor=none;top=0;left=0;bottom=0;right=0;" vertex="1" parent="pFVaxG2ovcDRRp4HrHUz-65">
          <mxGeometry x="120" width="50" height="40" as="geometry" />
        </mxCell>
        <mxCell id="pFVaxG2ovcDRRp4HrHUz-69" value="Winter" style="shape=partialRectangle;html=1;whiteSpace=wrap;connectable=0;overflow=hidden;fillColor=none;top=0;left=0;bottom=0;right=0;" vertex="1" parent="pFVaxG2ovcDRRp4HrHUz-65">
          <mxGeometry x="170" width="60" height="40" as="geometry" />
        </mxCell>
        <mxCell id="pFVaxG2ovcDRRp4HrHUz-70" value="" style="shape=partialRectangle;html=1;whiteSpace=wrap;collapsible=0;dropTarget=0;pointerEvents=0;fillColor=none;top=0;left=0;bottom=0;right=0;points=[[0,0.5],[1,0.5]];portConstraint=eastwest;" vertex="1" parent="pFVaxG2ovcDRRp4HrHUz-54">
          <mxGeometry y="120" width="230" height="40" as="geometry" />
        </mxCell>
        <mxCell id="pFVaxG2ovcDRRp4HrHUz-71" value="44" style="shape=partialRectangle;html=1;whiteSpace=wrap;connectable=0;overflow=hidden;fillColor=none;top=0;left=0;bottom=0;right=0;" vertex="1" parent="pFVaxG2ovcDRRp4HrHUz-70">
          <mxGeometry width="60" height="40" as="geometry" />
        </mxCell>
        <mxCell id="pFVaxG2ovcDRRp4HrHUz-72" value="AUS" style="shape=partialRectangle;html=1;whiteSpace=wrap;connectable=0;overflow=hidden;fillColor=none;top=0;left=0;bottom=0;right=0;" vertex="1" parent="pFVaxG2ovcDRRp4HrHUz-70">
          <mxGeometry x="60" width="60" height="40" as="geometry" />
        </mxCell>
        <mxCell id="pFVaxG2ovcDRRp4HrHUz-73" value="2000" style="shape=partialRectangle;html=1;whiteSpace=wrap;connectable=0;overflow=hidden;fillColor=none;top=0;left=0;bottom=0;right=0;" vertex="1" parent="pFVaxG2ovcDRRp4HrHUz-70">
          <mxGeometry x="120" width="50" height="40" as="geometry" />
        </mxCell>
        <mxCell id="pFVaxG2ovcDRRp4HrHUz-74" value="Summer" style="shape=partialRectangle;html=1;whiteSpace=wrap;connectable=0;overflow=hidden;fillColor=none;top=0;left=0;bottom=0;right=0;" vertex="1" parent="pFVaxG2ovcDRRp4HrHUz-70">
          <mxGeometry x="170" width="60" height="40" as="geometry" />
        </mxCell>
        <mxCell id="pFVaxG2ovcDRRp4HrHUz-75" value="Participates" style="text;html=1;strokeColor=none;fillColor=none;align=center;verticalAlign=middle;whiteSpace=wrap;rounded=0;fontStyle=1" vertex="1" parent="1">
          <mxGeometry x="440" y="20" width="40" height="20" as="geometry" />
        </mxCell>
        <mxCell id="pFVaxG2ovcDRRp4HrHUz-220" style="edgeStyle=orthogonalEdgeStyle;rounded=0;orthogonalLoop=1;jettySize=auto;html=1;exitX=0.053;exitY=0.025;exitDx=0;exitDy=0;entryX=0.143;entryY=-0.025;entryDx=0;entryDy=0;entryPerimeter=0;startArrow=none;startFill=0;endArrow=ERmany;endFill=0;exitPerimeter=0;" edge="1" parent="1" source="pFVaxG2ovcDRRp4HrHUz-9" target="pFVaxG2ovcDRRp4HrHUz-38">
          <mxGeometry relative="1" as="geometry" />
        </mxCell>
        <mxCell id="pFVaxG2ovcDRRp4HrHUz-76" value="Athlete" style="text;html=1;strokeColor=none;fillColor=none;align=center;verticalAlign=middle;whiteSpace=wrap;rounded=0;fontStyle=1" vertex="1" parent="1">
          <mxGeometry x="50" y="20" width="40" height="20" as="geometry" />
        </mxCell>
        <mxCell id="pFVaxG2ovcDRRp4HrHUz-77" value="&lt;b&gt;Olympiad&lt;/b&gt;" style="text;html=1;strokeColor=none;fillColor=none;align=center;verticalAlign=middle;whiteSpace=wrap;rounded=0;" vertex="1" parent="1">
          <mxGeometry x="600" y="20" width="40" height="20" as="geometry" />
        </mxCell>
        <mxCell id="pFVaxG2ovcDRRp4HrHUz-78" value="" style="shape=table;html=1;whiteSpace=wrap;startSize=0;container=1;collapsible=0;childLayout=tableLayout;fontStyle=1" vertex="1" parent="1">
          <mxGeometry x="10" y="240" width="90" height="160" as="geometry" />
        </mxCell>
        <mxCell id="pFVaxG2ovcDRRp4HrHUz-79" value="" style="shape=partialRectangle;html=1;whiteSpace=wrap;collapsible=0;dropTarget=0;pointerEvents=0;fillColor=none;top=0;left=0;bottom=0;right=0;points=[[0,0.5],[1,0.5]];portConstraint=eastwest;" vertex="1" parent="pFVaxG2ovcDRRp4HrHUz-78">
          <mxGeometry width="90" height="40" as="geometry" />
        </mxCell>
        <mxCell id="pFVaxG2ovcDRRp4HrHUz-80" value="ID" style="shape=partialRectangle;html=1;whiteSpace=wrap;connectable=0;overflow=hidden;fillColor=none;top=0;left=0;bottom=0;right=0;fontStyle=5" vertex="1" parent="pFVaxG2ovcDRRp4HrHUz-79">
          <mxGeometry width="40" height="40" as="geometry" />
        </mxCell>
        <mxCell id="pFVaxG2ovcDRRp4HrHUz-81" value="Country&lt;br&gt;Code" style="shape=partialRectangle;html=1;whiteSpace=wrap;connectable=0;overflow=hidden;fillColor=none;top=0;left=0;bottom=0;right=0;fontStyle=5" vertex="1" parent="pFVaxG2ovcDRRp4HrHUz-79">
          <mxGeometry x="40" width="50" height="40" as="geometry" />
        </mxCell>
        <mxCell id="pFVaxG2ovcDRRp4HrHUz-82" value="" style="shape=partialRectangle;html=1;whiteSpace=wrap;collapsible=0;dropTarget=0;pointerEvents=0;fillColor=none;top=0;left=0;bottom=0;right=0;points=[[0,0.5],[1,0.5]];portConstraint=eastwest;" vertex="1" parent="pFVaxG2ovcDRRp4HrHUz-78">
          <mxGeometry y="40" width="90" height="40" as="geometry" />
        </mxCell>
        <mxCell id="pFVaxG2ovcDRRp4HrHUz-83" value="500" style="shape=partialRectangle;html=1;whiteSpace=wrap;connectable=0;overflow=hidden;fillColor=none;top=0;left=0;bottom=0;right=0;" vertex="1" parent="pFVaxG2ovcDRRp4HrHUz-82">
          <mxGeometry width="40" height="40" as="geometry" />
        </mxCell>
        <mxCell id="pFVaxG2ovcDRRp4HrHUz-84" value="USA" style="shape=partialRectangle;html=1;whiteSpace=wrap;connectable=0;overflow=hidden;fillColor=none;top=0;left=0;bottom=0;right=0;" vertex="1" parent="pFVaxG2ovcDRRp4HrHUz-82">
          <mxGeometry x="40" width="50" height="40" as="geometry" />
        </mxCell>
        <mxCell id="pFVaxG2ovcDRRp4HrHUz-85" value="" style="shape=partialRectangle;html=1;whiteSpace=wrap;collapsible=0;dropTarget=0;pointerEvents=0;fillColor=none;top=0;left=0;bottom=0;right=0;points=[[0,0.5],[1,0.5]];portConstraint=eastwest;" vertex="1" parent="pFVaxG2ovcDRRp4HrHUz-78">
          <mxGeometry y="80" width="90" height="40" as="geometry" />
        </mxCell>
        <mxCell id="pFVaxG2ovcDRRp4HrHUz-86" value="5432" style="shape=partialRectangle;html=1;whiteSpace=wrap;connectable=0;overflow=hidden;fillColor=none;top=0;left=0;bottom=0;right=0;" vertex="1" parent="pFVaxG2ovcDRRp4HrHUz-85">
          <mxGeometry width="40" height="40" as="geometry" />
        </mxCell>
        <mxCell id="pFVaxG2ovcDRRp4HrHUz-87" value="IRA" style="shape=partialRectangle;html=1;whiteSpace=wrap;connectable=0;overflow=hidden;fillColor=none;top=0;left=0;bottom=0;right=0;" vertex="1" parent="pFVaxG2ovcDRRp4HrHUz-85">
          <mxGeometry x="40" width="50" height="40" as="geometry" />
        </mxCell>
        <mxCell id="pFVaxG2ovcDRRp4HrHUz-88" value="" style="shape=partialRectangle;html=1;whiteSpace=wrap;collapsible=0;dropTarget=0;pointerEvents=0;fillColor=none;top=0;left=0;bottom=0;right=0;points=[[0,0.5],[1,0.5]];portConstraint=eastwest;" vertex="1" parent="pFVaxG2ovcDRRp4HrHUz-78">
          <mxGeometry y="120" width="90" height="40" as="geometry" />
        </mxCell>
        <mxCell id="pFVaxG2ovcDRRp4HrHUz-89" value="8841" style="shape=partialRectangle;html=1;whiteSpace=wrap;connectable=0;overflow=hidden;fillColor=none;top=0;left=0;bottom=0;right=0;" vertex="1" parent="pFVaxG2ovcDRRp4HrHUz-88">
          <mxGeometry width="40" height="40" as="geometry" />
        </mxCell>
        <mxCell id="pFVaxG2ovcDRRp4HrHUz-90" value="SWE" style="shape=partialRectangle;html=1;whiteSpace=wrap;connectable=0;overflow=hidden;fillColor=none;top=0;left=0;bottom=0;right=0;" vertex="1" parent="pFVaxG2ovcDRRp4HrHUz-88">
          <mxGeometry x="40" width="50" height="40" as="geometry" />
        </mxCell>
        <mxCell id="pFVaxG2ovcDRRp4HrHUz-91" value="Belongs To" style="text;html=1;strokeColor=none;fillColor=none;align=center;verticalAlign=middle;whiteSpace=wrap;rounded=0;fontStyle=1" vertex="1" parent="1">
          <mxGeometry x="20" y="220" width="80" height="20" as="geometry" />
        </mxCell>
        <mxCell id="pFVaxG2ovcDRRp4HrHUz-95" value="" style="shape=table;html=1;whiteSpace=wrap;startSize=0;container=1;collapsible=0;childLayout=tableLayout;" vertex="1" parent="1">
          <mxGeometry x="10" y="440" width="190" height="160" as="geometry" />
        </mxCell>
        <mxCell id="pFVaxG2ovcDRRp4HrHUz-96" value="" style="shape=partialRectangle;html=1;whiteSpace=wrap;collapsible=0;dropTarget=0;pointerEvents=0;fillColor=none;top=0;left=0;bottom=0;right=0;points=[[0,0.5],[1,0.5]];portConstraint=eastwest;" vertex="1" parent="pFVaxG2ovcDRRp4HrHUz-95">
          <mxGeometry width="190" height="40" as="geometry" />
        </mxCell>
        <mxCell id="pFVaxG2ovcDRRp4HrHUz-97" value="Country&lt;br&gt;Name" style="shape=partialRectangle;html=1;whiteSpace=wrap;connectable=0;overflow=hidden;fillColor=none;top=0;left=0;bottom=0;right=0;" vertex="1" parent="pFVaxG2ovcDRRp4HrHUz-96">
          <mxGeometry width="70" height="40" as="geometry" />
        </mxCell>
        <mxCell id="pFVaxG2ovcDRRp4HrHUz-98" value="&lt;b&gt;Country&lt;br&gt;Code&lt;/b&gt;" style="shape=partialRectangle;html=1;whiteSpace=wrap;connectable=0;overflow=hidden;fillColor=none;top=0;left=0;bottom=0;right=0;fontStyle=4" vertex="1" parent="pFVaxG2ovcDRRp4HrHUz-96">
          <mxGeometry x="70" width="50" height="40" as="geometry" />
        </mxCell>
        <mxCell id="pFVaxG2ovcDRRp4HrHUz-99" value="Flag Bearer" style="shape=partialRectangle;html=1;whiteSpace=wrap;connectable=0;overflow=hidden;fillColor=none;top=0;left=0;bottom=0;right=0;fontStyle=0" vertex="1" parent="pFVaxG2ovcDRRp4HrHUz-96">
          <mxGeometry x="120" width="70" height="40" as="geometry" />
        </mxCell>
        <mxCell id="pFVaxG2ovcDRRp4HrHUz-100" value="" style="shape=partialRectangle;html=1;whiteSpace=wrap;collapsible=0;dropTarget=0;pointerEvents=0;fillColor=none;top=0;left=0;bottom=0;right=0;points=[[0,0.5],[1,0.5]];portConstraint=eastwest;" vertex="1" parent="pFVaxG2ovcDRRp4HrHUz-95">
          <mxGeometry y="40" width="190" height="50" as="geometry" />
        </mxCell>
        <mxCell id="pFVaxG2ovcDRRp4HrHUz-101" value="United States of America" style="shape=partialRectangle;html=1;whiteSpace=wrap;connectable=0;overflow=hidden;fillColor=none;top=0;left=0;bottom=0;right=0;" vertex="1" parent="pFVaxG2ovcDRRp4HrHUz-100">
          <mxGeometry width="70" height="50" as="geometry" />
        </mxCell>
        <mxCell id="pFVaxG2ovcDRRp4HrHUz-102" value="USA" style="shape=partialRectangle;html=1;whiteSpace=wrap;connectable=0;overflow=hidden;fillColor=none;top=0;left=0;bottom=0;right=0;" vertex="1" parent="pFVaxG2ovcDRRp4HrHUz-100">
          <mxGeometry x="70" width="50" height="50" as="geometry" />
        </mxCell>
        <mxCell id="pFVaxG2ovcDRRp4HrHUz-103" value="&lt;span style=&quot;color: rgb(32 , 33 , 36) ; font-family: &amp;#34;arial&amp;#34; , sans-serif ; font-size: 14px ; font-style: normal ; font-weight: 400 ; letter-spacing: normal ; text-align: left ; text-indent: 0px ; text-transform: none ; word-spacing: 0px ; background-color: rgb(255 , 255 , 255) ; display: inline ; float: none&quot;&gt;Mark Grimmette&lt;/span&gt;" style="shape=partialRectangle;html=1;whiteSpace=wrap;connectable=0;overflow=hidden;fillColor=none;top=0;left=0;bottom=0;right=0;" vertex="1" parent="pFVaxG2ovcDRRp4HrHUz-100">
          <mxGeometry x="120" width="70" height="50" as="geometry" />
        </mxCell>
        <mxCell id="pFVaxG2ovcDRRp4HrHUz-104" value="" style="shape=partialRectangle;html=1;whiteSpace=wrap;collapsible=0;dropTarget=0;pointerEvents=0;fillColor=none;top=0;left=0;bottom=0;right=0;points=[[0,0.5],[1,0.5]];portConstraint=eastwest;" vertex="1" parent="pFVaxG2ovcDRRp4HrHUz-95">
          <mxGeometry y="90" width="190" height="40" as="geometry" />
        </mxCell>
        <mxCell id="pFVaxG2ovcDRRp4HrHUz-105" value="Japan" style="shape=partialRectangle;html=1;whiteSpace=wrap;connectable=0;overflow=hidden;fillColor=none;top=0;left=0;bottom=0;right=0;" vertex="1" parent="pFVaxG2ovcDRRp4HrHUz-104">
          <mxGeometry width="70" height="40" as="geometry" />
        </mxCell>
        <mxCell id="pFVaxG2ovcDRRp4HrHUz-106" value="JAP" style="shape=partialRectangle;html=1;whiteSpace=wrap;connectable=0;overflow=hidden;fillColor=none;top=0;left=0;bottom=0;right=0;" vertex="1" parent="pFVaxG2ovcDRRp4HrHUz-104">
          <mxGeometry x="70" width="50" height="40" as="geometry" />
        </mxCell>
        <mxCell id="pFVaxG2ovcDRRp4HrHUz-107" value="&lt;span style=&quot;color: rgb(32 , 33 , 36) ; font-family: &amp;#34;arial&amp;#34; , sans-serif ; font-size: 14px ; font-style: normal ; font-weight: 400 ; letter-spacing: normal ; text-align: left ; text-indent: 0px ; text-transform: none ; word-spacing: 0px ; background-color: rgb(255 , 255 , 255) ; display: inline ; float: none&quot;&gt;Keisuke Ushiro&lt;/span&gt;" style="shape=partialRectangle;html=1;whiteSpace=wrap;connectable=0;overflow=hidden;fillColor=none;top=0;left=0;bottom=0;right=0;" vertex="1" parent="pFVaxG2ovcDRRp4HrHUz-104">
          <mxGeometry x="120" width="70" height="40" as="geometry" />
        </mxCell>
        <mxCell id="pFVaxG2ovcDRRp4HrHUz-108" value="" style="shape=partialRectangle;html=1;whiteSpace=wrap;collapsible=0;dropTarget=0;pointerEvents=0;fillColor=none;top=0;left=0;bottom=0;right=0;points=[[0,0.5],[1,0.5]];portConstraint=eastwest;" vertex="1" parent="pFVaxG2ovcDRRp4HrHUz-95">
          <mxGeometry y="130" width="190" height="30" as="geometry" />
        </mxCell>
        <mxCell id="pFVaxG2ovcDRRp4HrHUz-109" value="Russia" style="shape=partialRectangle;html=1;whiteSpace=wrap;connectable=0;overflow=hidden;fillColor=none;top=0;left=0;bottom=0;right=0;" vertex="1" parent="pFVaxG2ovcDRRp4HrHUz-108">
          <mxGeometry width="70" height="30" as="geometry" />
        </mxCell>
        <mxCell id="pFVaxG2ovcDRRp4HrHUz-110" value="RUS" style="shape=partialRectangle;html=1;whiteSpace=wrap;connectable=0;overflow=hidden;fillColor=none;top=0;left=0;bottom=0;right=0;" vertex="1" parent="pFVaxG2ovcDRRp4HrHUz-108">
          <mxGeometry x="70" width="50" height="30" as="geometry" />
        </mxCell>
        <mxCell id="pFVaxG2ovcDRRp4HrHUz-111" value="Alexandr&lt;br&gt;Zubkov" style="shape=partialRectangle;html=1;whiteSpace=wrap;connectable=0;overflow=hidden;fillColor=none;top=0;left=0;bottom=0;right=0;" vertex="1" parent="pFVaxG2ovcDRRp4HrHUz-108">
          <mxGeometry x="120" width="70" height="30" as="geometry" />
        </mxCell>
        <mxCell id="pFVaxG2ovcDRRp4HrHUz-112" value="Olympic Teams" style="text;html=1;strokeColor=none;fillColor=none;align=center;verticalAlign=middle;whiteSpace=wrap;rounded=0;fontStyle=1" vertex="1" parent="1">
          <mxGeometry x="10" y="420" width="90" height="20" as="geometry" />
        </mxCell>
        <mxCell id="pFVaxG2ovcDRRp4HrHUz-134" value="" style="shape=table;html=1;whiteSpace=wrap;startSize=0;container=1;collapsible=0;childLayout=tableLayout;fontStyle=1" vertex="1" parent="1">
          <mxGeometry x="610" y="440" width="180" height="160" as="geometry" />
        </mxCell>
        <mxCell id="pFVaxG2ovcDRRp4HrHUz-135" value="" style="shape=partialRectangle;html=1;whiteSpace=wrap;collapsible=0;dropTarget=0;pointerEvents=0;fillColor=none;top=0;left=0;bottom=0;right=0;points=[[0,0.5],[1,0.5]];portConstraint=eastwest;" vertex="1" parent="pFVaxG2ovcDRRp4HrHUz-134">
          <mxGeometry width="180" height="40" as="geometry" />
        </mxCell>
        <mxCell id="pFVaxG2ovcDRRp4HrHUz-136" value="EventID" style="shape=partialRectangle;html=1;whiteSpace=wrap;connectable=0;overflow=hidden;fillColor=none;top=0;left=0;bottom=0;right=0;fontStyle=5" vertex="1" parent="pFVaxG2ovcDRRp4HrHUz-135">
          <mxGeometry width="60" height="40" as="geometry" />
        </mxCell>
        <mxCell id="pFVaxG2ovcDRRp4HrHUz-137" value="Name" style="shape=partialRectangle;html=1;whiteSpace=wrap;connectable=0;overflow=hidden;fillColor=none;top=0;left=0;bottom=0;right=0;" vertex="1" parent="pFVaxG2ovcDRRp4HrHUz-135">
          <mxGeometry x="60" width="60" height="40" as="geometry" />
        </mxCell>
        <mxCell id="pFVaxG2ovcDRRp4HrHUz-138" value="Type" style="shape=partialRectangle;html=1;whiteSpace=wrap;connectable=0;overflow=hidden;fillColor=none;top=0;left=0;bottom=0;right=0;" vertex="1" parent="pFVaxG2ovcDRRp4HrHUz-135">
          <mxGeometry x="120" width="60" height="40" as="geometry" />
        </mxCell>
        <mxCell id="pFVaxG2ovcDRRp4HrHUz-139" value="" style="shape=partialRectangle;html=1;whiteSpace=wrap;collapsible=0;dropTarget=0;pointerEvents=0;fillColor=none;top=0;left=0;bottom=0;right=0;points=[[0,0.5],[1,0.5]];portConstraint=eastwest;" vertex="1" parent="pFVaxG2ovcDRRp4HrHUz-134">
          <mxGeometry y="40" width="180" height="40" as="geometry" />
        </mxCell>
        <mxCell id="pFVaxG2ovcDRRp4HrHUz-140" value="14" style="shape=partialRectangle;html=1;whiteSpace=wrap;connectable=0;overflow=hidden;fillColor=none;top=0;left=0;bottom=0;right=0;" vertex="1" parent="pFVaxG2ovcDRRp4HrHUz-139">
          <mxGeometry width="60" height="40" as="geometry" />
        </mxCell>
        <mxCell id="pFVaxG2ovcDRRp4HrHUz-141" value="Football" style="shape=partialRectangle;html=1;whiteSpace=wrap;connectable=0;overflow=hidden;fillColor=none;top=0;left=0;bottom=0;right=0;" vertex="1" parent="pFVaxG2ovcDRRp4HrHUz-139">
          <mxGeometry x="60" width="60" height="40" as="geometry" />
        </mxCell>
        <mxCell id="pFVaxG2ovcDRRp4HrHUz-142" value="Team" style="shape=partialRectangle;html=1;whiteSpace=wrap;connectable=0;overflow=hidden;fillColor=none;top=0;left=0;bottom=0;right=0;" vertex="1" parent="pFVaxG2ovcDRRp4HrHUz-139">
          <mxGeometry x="120" width="60" height="40" as="geometry" />
        </mxCell>
        <mxCell id="pFVaxG2ovcDRRp4HrHUz-143" value="" style="shape=partialRectangle;html=1;whiteSpace=wrap;collapsible=0;dropTarget=0;pointerEvents=0;fillColor=none;top=0;left=0;bottom=0;right=0;points=[[0,0.5],[1,0.5]];portConstraint=eastwest;" vertex="1" parent="pFVaxG2ovcDRRp4HrHUz-134">
          <mxGeometry y="80" width="180" height="40" as="geometry" />
        </mxCell>
        <mxCell id="pFVaxG2ovcDRRp4HrHUz-144" value="244" style="shape=partialRectangle;html=1;whiteSpace=wrap;connectable=0;overflow=hidden;fillColor=none;top=0;left=0;bottom=0;right=0;" vertex="1" parent="pFVaxG2ovcDRRp4HrHUz-143">
          <mxGeometry width="60" height="40" as="geometry" />
        </mxCell>
        <mxCell id="pFVaxG2ovcDRRp4HrHUz-145" value="Fencing" style="shape=partialRectangle;html=1;whiteSpace=wrap;connectable=0;overflow=hidden;fillColor=none;top=0;left=0;bottom=0;right=0;" vertex="1" parent="pFVaxG2ovcDRRp4HrHUz-143">
          <mxGeometry x="60" width="60" height="40" as="geometry" />
        </mxCell>
        <mxCell id="pFVaxG2ovcDRRp4HrHUz-146" value="Individual" style="shape=partialRectangle;html=1;whiteSpace=wrap;connectable=0;overflow=hidden;fillColor=none;top=0;left=0;bottom=0;right=0;" vertex="1" parent="pFVaxG2ovcDRRp4HrHUz-143">
          <mxGeometry x="120" width="60" height="40" as="geometry" />
        </mxCell>
        <mxCell id="pFVaxG2ovcDRRp4HrHUz-147" value="" style="shape=partialRectangle;html=1;whiteSpace=wrap;collapsible=0;dropTarget=0;pointerEvents=0;fillColor=none;top=0;left=0;bottom=0;right=0;points=[[0,0.5],[1,0.5]];portConstraint=eastwest;" vertex="1" parent="pFVaxG2ovcDRRp4HrHUz-134">
          <mxGeometry y="120" width="180" height="40" as="geometry" />
        </mxCell>
        <mxCell id="pFVaxG2ovcDRRp4HrHUz-148" value="89" style="shape=partialRectangle;html=1;whiteSpace=wrap;connectable=0;overflow=hidden;fillColor=none;top=0;left=0;bottom=0;right=0;" vertex="1" parent="pFVaxG2ovcDRRp4HrHUz-147">
          <mxGeometry width="60" height="40" as="geometry" />
        </mxCell>
        <mxCell id="pFVaxG2ovcDRRp4HrHUz-149" value="Hockey" style="shape=partialRectangle;html=1;whiteSpace=wrap;connectable=0;overflow=hidden;fillColor=none;top=0;left=0;bottom=0;right=0;" vertex="1" parent="pFVaxG2ovcDRRp4HrHUz-147">
          <mxGeometry x="60" width="60" height="40" as="geometry" />
        </mxCell>
        <mxCell id="pFVaxG2ovcDRRp4HrHUz-150" value="Team" style="shape=partialRectangle;html=1;whiteSpace=wrap;connectable=0;overflow=hidden;fillColor=none;top=0;left=0;bottom=0;right=0;" vertex="1" parent="pFVaxG2ovcDRRp4HrHUz-147">
          <mxGeometry x="120" width="60" height="40" as="geometry" />
        </mxCell>
        <mxCell id="pFVaxG2ovcDRRp4HrHUz-151" value="Events" style="text;html=1;strokeColor=none;fillColor=none;align=center;verticalAlign=middle;whiteSpace=wrap;rounded=0;fontStyle=1" vertex="1" parent="1">
          <mxGeometry x="710" y="420" width="40" height="20" as="geometry" />
        </mxCell>
        <mxCell id="pFVaxG2ovcDRRp4HrHUz-152" value="" style="shape=table;html=1;whiteSpace=wrap;startSize=0;container=1;collapsible=0;childLayout=tableLayout;" vertex="1" parent="1">
          <mxGeometry x="730" y="240" width="120" height="160" as="geometry" />
        </mxCell>
        <mxCell id="pFVaxG2ovcDRRp4HrHUz-153" value="" style="shape=partialRectangle;html=1;whiteSpace=wrap;collapsible=0;dropTarget=0;pointerEvents=0;fillColor=none;top=0;left=0;bottom=0;right=0;points=[[0,0.5],[1,0.5]];portConstraint=eastwest;" vertex="1" parent="pFVaxG2ovcDRRp4HrHUz-152">
          <mxGeometry width="120" height="40" as="geometry" />
        </mxCell>
        <mxCell id="pFVaxG2ovcDRRp4HrHUz-154" value="&lt;b&gt;OlyID&lt;/b&gt;" style="shape=partialRectangle;html=1;whiteSpace=wrap;connectable=0;overflow=hidden;fillColor=none;top=0;left=0;bottom=0;right=0;fontStyle=4" vertex="1" parent="pFVaxG2ovcDRRp4HrHUz-153">
          <mxGeometry width="60" height="40" as="geometry" />
        </mxCell>
        <mxCell id="pFVaxG2ovcDRRp4HrHUz-155" value="&lt;b&gt;&lt;u&gt;EventID&lt;/u&gt;&lt;/b&gt;" style="shape=partialRectangle;html=1;whiteSpace=wrap;connectable=0;overflow=hidden;fillColor=none;top=0;left=0;bottom=0;right=0;" vertex="1" parent="pFVaxG2ovcDRRp4HrHUz-153">
          <mxGeometry x="60" width="60" height="40" as="geometry" />
        </mxCell>
        <mxCell id="pFVaxG2ovcDRRp4HrHUz-156" value="" style="shape=partialRectangle;html=1;whiteSpace=wrap;collapsible=0;dropTarget=0;pointerEvents=0;fillColor=none;top=0;left=0;bottom=0;right=0;points=[[0,0.5],[1,0.5]];portConstraint=eastwest;" vertex="1" parent="pFVaxG2ovcDRRp4HrHUz-152">
          <mxGeometry y="40" width="120" height="40" as="geometry" />
        </mxCell>
        <mxCell id="pFVaxG2ovcDRRp4HrHUz-157" value="44" style="shape=partialRectangle;html=1;whiteSpace=wrap;connectable=0;overflow=hidden;fillColor=none;top=0;left=0;bottom=0;right=0;" vertex="1" parent="pFVaxG2ovcDRRp4HrHUz-156">
          <mxGeometry width="60" height="40" as="geometry" />
        </mxCell>
        <mxCell id="pFVaxG2ovcDRRp4HrHUz-158" value="155" style="shape=partialRectangle;html=1;whiteSpace=wrap;connectable=0;overflow=hidden;fillColor=none;top=0;left=0;bottom=0;right=0;" vertex="1" parent="pFVaxG2ovcDRRp4HrHUz-156">
          <mxGeometry x="60" width="60" height="40" as="geometry" />
        </mxCell>
        <mxCell id="pFVaxG2ovcDRRp4HrHUz-159" value="" style="shape=partialRectangle;html=1;whiteSpace=wrap;collapsible=0;dropTarget=0;pointerEvents=0;fillColor=none;top=0;left=0;bottom=0;right=0;points=[[0,0.5],[1,0.5]];portConstraint=eastwest;" vertex="1" parent="pFVaxG2ovcDRRp4HrHUz-152">
          <mxGeometry y="80" width="120" height="40" as="geometry" />
        </mxCell>
        <mxCell id="pFVaxG2ovcDRRp4HrHUz-160" value="44" style="shape=partialRectangle;html=1;whiteSpace=wrap;connectable=0;overflow=hidden;fillColor=none;top=0;left=0;bottom=0;right=0;" vertex="1" parent="pFVaxG2ovcDRRp4HrHUz-159">
          <mxGeometry width="60" height="40" as="geometry" />
        </mxCell>
        <mxCell id="pFVaxG2ovcDRRp4HrHUz-161" value="156" style="shape=partialRectangle;html=1;whiteSpace=wrap;connectable=0;overflow=hidden;fillColor=none;top=0;left=0;bottom=0;right=0;" vertex="1" parent="pFVaxG2ovcDRRp4HrHUz-159">
          <mxGeometry x="60" width="60" height="40" as="geometry" />
        </mxCell>
        <mxCell id="pFVaxG2ovcDRRp4HrHUz-162" value="" style="shape=partialRectangle;html=1;whiteSpace=wrap;collapsible=0;dropTarget=0;pointerEvents=0;fillColor=none;top=0;left=0;bottom=0;right=0;points=[[0,0.5],[1,0.5]];portConstraint=eastwest;" vertex="1" parent="pFVaxG2ovcDRRp4HrHUz-152">
          <mxGeometry y="120" width="120" height="40" as="geometry" />
        </mxCell>
        <mxCell id="pFVaxG2ovcDRRp4HrHUz-163" value="44" style="shape=partialRectangle;html=1;whiteSpace=wrap;connectable=0;overflow=hidden;fillColor=none;top=0;left=0;bottom=0;right=0;" vertex="1" parent="pFVaxG2ovcDRRp4HrHUz-162">
          <mxGeometry width="60" height="40" as="geometry" />
        </mxCell>
        <mxCell id="pFVaxG2ovcDRRp4HrHUz-164" value="157" style="shape=partialRectangle;html=1;whiteSpace=wrap;connectable=0;overflow=hidden;fillColor=none;top=0;left=0;bottom=0;right=0;" vertex="1" parent="pFVaxG2ovcDRRp4HrHUz-162">
          <mxGeometry x="60" width="60" height="40" as="geometry" />
        </mxCell>
        <mxCell id="pFVaxG2ovcDRRp4HrHUz-165" value="" style="shape=table;html=1;whiteSpace=wrap;startSize=0;container=1;collapsible=0;childLayout=tableLayout;" vertex="1" parent="1">
          <mxGeometry x="160" y="240" width="180" height="160" as="geometry" />
        </mxCell>
        <mxCell id="pFVaxG2ovcDRRp4HrHUz-166" value="" style="shape=partialRectangle;html=1;whiteSpace=wrap;collapsible=0;dropTarget=0;pointerEvents=0;fillColor=none;top=0;left=0;bottom=0;right=0;points=[[0,0.5],[1,0.5]];portConstraint=eastwest;" vertex="1" parent="pFVaxG2ovcDRRp4HrHUz-165">
          <mxGeometry width="180" height="40" as="geometry" />
        </mxCell>
        <mxCell id="pFVaxG2ovcDRRp4HrHUz-167" value="ID" style="shape=partialRectangle;html=1;whiteSpace=wrap;connectable=0;overflow=hidden;fillColor=none;top=0;left=0;bottom=0;right=0;fontStyle=5" vertex="1" parent="pFVaxG2ovcDRRp4HrHUz-166">
          <mxGeometry width="50" height="40" as="geometry" />
        </mxCell>
        <mxCell id="pFVaxG2ovcDRRp4HrHUz-168" value="Result" style="shape=partialRectangle;html=1;whiteSpace=wrap;connectable=0;overflow=hidden;fillColor=none;top=0;left=0;bottom=0;right=0;fontStyle=1" vertex="1" parent="pFVaxG2ovcDRRp4HrHUz-166">
          <mxGeometry x="50" width="80" height="40" as="geometry" />
        </mxCell>
        <mxCell id="pFVaxG2ovcDRRp4HrHUz-169" value="EventID" style="shape=partialRectangle;html=1;whiteSpace=wrap;connectable=0;overflow=hidden;fillColor=none;top=0;left=0;bottom=0;right=0;fontStyle=5" vertex="1" parent="pFVaxG2ovcDRRp4HrHUz-166">
          <mxGeometry x="130" width="50" height="40" as="geometry" />
        </mxCell>
        <mxCell id="pFVaxG2ovcDRRp4HrHUz-170" value="" style="shape=partialRectangle;html=1;whiteSpace=wrap;collapsible=0;dropTarget=0;pointerEvents=0;fillColor=none;top=0;left=0;bottom=0;right=0;points=[[0,0.5],[1,0.5]];portConstraint=eastwest;" vertex="1" parent="pFVaxG2ovcDRRp4HrHUz-165">
          <mxGeometry y="40" width="180" height="40" as="geometry" />
        </mxCell>
        <mxCell id="pFVaxG2ovcDRRp4HrHUz-171" value="500" style="shape=partialRectangle;html=1;whiteSpace=wrap;connectable=0;overflow=hidden;fillColor=none;top=0;left=0;bottom=0;right=0;" vertex="1" parent="pFVaxG2ovcDRRp4HrHUz-170">
          <mxGeometry width="50" height="40" as="geometry" />
        </mxCell>
        <mxCell id="pFVaxG2ovcDRRp4HrHUz-172" value="5-0" style="shape=partialRectangle;html=1;whiteSpace=wrap;connectable=0;overflow=hidden;fillColor=none;top=0;left=0;bottom=0;right=0;" vertex="1" parent="pFVaxG2ovcDRRp4HrHUz-170">
          <mxGeometry x="50" width="80" height="40" as="geometry" />
        </mxCell>
        <mxCell id="pFVaxG2ovcDRRp4HrHUz-173" value="244" style="shape=partialRectangle;html=1;whiteSpace=wrap;connectable=0;overflow=hidden;fillColor=none;top=0;left=0;bottom=0;right=0;" vertex="1" parent="pFVaxG2ovcDRRp4HrHUz-170">
          <mxGeometry x="130" width="50" height="40" as="geometry" />
        </mxCell>
        <mxCell id="pFVaxG2ovcDRRp4HrHUz-174" value="" style="shape=partialRectangle;html=1;whiteSpace=wrap;collapsible=0;dropTarget=0;pointerEvents=0;fillColor=none;top=0;left=0;bottom=0;right=0;points=[[0,0.5],[1,0.5]];portConstraint=eastwest;" vertex="1" parent="pFVaxG2ovcDRRp4HrHUz-165">
          <mxGeometry y="80" width="180" height="40" as="geometry" />
        </mxCell>
        <mxCell id="pFVaxG2ovcDRRp4HrHUz-175" value="755" style="shape=partialRectangle;html=1;whiteSpace=wrap;connectable=0;overflow=hidden;fillColor=none;top=0;left=0;bottom=0;right=0;" vertex="1" parent="pFVaxG2ovcDRRp4HrHUz-174">
          <mxGeometry width="50" height="40" as="geometry" />
        </mxCell>
        <mxCell id="pFVaxG2ovcDRRp4HrHUz-176" value="14,85m" style="shape=partialRectangle;html=1;whiteSpace=wrap;connectable=0;overflow=hidden;fillColor=none;top=0;left=0;bottom=0;right=0;" vertex="1" parent="pFVaxG2ovcDRRp4HrHUz-174">
          <mxGeometry x="50" width="80" height="40" as="geometry" />
        </mxCell>
        <mxCell id="pFVaxG2ovcDRRp4HrHUz-177" value="475" style="shape=partialRectangle;html=1;whiteSpace=wrap;connectable=0;overflow=hidden;fillColor=none;top=0;left=0;bottom=0;right=0;" vertex="1" parent="pFVaxG2ovcDRRp4HrHUz-174">
          <mxGeometry x="130" width="50" height="40" as="geometry" />
        </mxCell>
        <mxCell id="pFVaxG2ovcDRRp4HrHUz-178" value="" style="shape=partialRectangle;html=1;whiteSpace=wrap;collapsible=0;dropTarget=0;pointerEvents=0;fillColor=none;top=0;left=0;bottom=0;right=0;points=[[0,0.5],[1,0.5]];portConstraint=eastwest;" vertex="1" parent="pFVaxG2ovcDRRp4HrHUz-165">
          <mxGeometry y="120" width="180" height="40" as="geometry" />
        </mxCell>
        <mxCell id="pFVaxG2ovcDRRp4HrHUz-179" value="4657" style="shape=partialRectangle;html=1;whiteSpace=wrap;connectable=0;overflow=hidden;fillColor=none;top=0;left=0;bottom=0;right=0;" vertex="1" parent="pFVaxG2ovcDRRp4HrHUz-178">
          <mxGeometry width="50" height="40" as="geometry" />
        </mxCell>
        <mxCell id="pFVaxG2ovcDRRp4HrHUz-180" value="" style="shape=partialRectangle;html=1;whiteSpace=wrap;connectable=0;overflow=hidden;fillColor=none;top=0;left=0;bottom=0;right=0;" vertex="1" parent="pFVaxG2ovcDRRp4HrHUz-178">
          <mxGeometry x="50" width="80" height="40" as="geometry" />
        </mxCell>
        <mxCell id="pFVaxG2ovcDRRp4HrHUz-181" value="598" style="shape=partialRectangle;html=1;whiteSpace=wrap;connectable=0;overflow=hidden;fillColor=none;top=0;left=0;bottom=0;right=0;" vertex="1" parent="pFVaxG2ovcDRRp4HrHUz-178">
          <mxGeometry x="130" width="50" height="40" as="geometry" />
        </mxCell>
        <mxCell id="pFVaxG2ovcDRRp4HrHUz-182" value="Achieves" style="text;html=1;strokeColor=none;fillColor=none;align=center;verticalAlign=middle;whiteSpace=wrap;rounded=0;fontStyle=1" vertex="1" parent="1">
          <mxGeometry x="200" y="220" width="40" height="20" as="geometry" />
        </mxCell>
        <mxCell id="pFVaxG2ovcDRRp4HrHUz-183" value="Hosts" style="text;html=1;strokeColor=none;fillColor=none;align=center;verticalAlign=middle;whiteSpace=wrap;rounded=0;fontStyle=1" vertex="1" parent="1">
          <mxGeometry x="770" y="220" width="40" height="20" as="geometry" />
        </mxCell>
        <mxCell id="pFVaxG2ovcDRRp4HrHUz-185" value="" style="endArrow=none;html=1;rounded=0;exitX=0.133;exitY=-0.025;exitDx=0;exitDy=0;entryX=0.061;entryY=1;entryDx=0;entryDy=0;entryPerimeter=0;endFill=0;startArrow=ERmany;startFill=0;exitPerimeter=0;" edge="1" parent="1" source="pFVaxG2ovcDRRp4HrHUz-166" target="pFVaxG2ovcDRRp4HrHUz-30">
          <mxGeometry relative="1" as="geometry">
            <mxPoint x="360" y="230" as="sourcePoint" />
            <mxPoint x="520" y="230" as="targetPoint" />
            <Array as="points">
              <mxPoint x="184" y="220" />
              <mxPoint x="32" y="220" />
            </Array>
          </mxGeometry>
        </mxCell>
        <mxCell id="pFVaxG2ovcDRRp4HrHUz-186" value="" style="endArrow=ERmandOne;html=1;rounded=0;exitX=0.036;exitY=1;exitDx=0;exitDy=0;exitPerimeter=0;endFill=0;startArrow=ERmandOne;startFill=0;entryX=0.115;entryY=0.043;entryDx=0;entryDy=0;entryPerimeter=0;" edge="1" parent="1" source="pFVaxG2ovcDRRp4HrHUz-30" target="pFVaxG2ovcDRRp4HrHUz-79">
          <mxGeometry relative="1" as="geometry">
            <mxPoint x="360" y="230" as="sourcePoint" />
            <mxPoint x="20" y="210" as="targetPoint" />
          </mxGeometry>
        </mxCell>
        <mxCell id="pFVaxG2ovcDRRp4HrHUz-187" value="" style="endArrow=ERmandOne;html=1;rounded=0;exitX=0.689;exitY=1.025;exitDx=0;exitDy=0;exitPerimeter=0;entryX=0.495;entryY=-0.075;entryDx=0;entryDy=0;entryPerimeter=0;startArrow=ERmandOne;startFill=0;endFill=0;" edge="1" parent="1" source="pFVaxG2ovcDRRp4HrHUz-88" target="pFVaxG2ovcDRRp4HrHUz-96">
          <mxGeometry relative="1" as="geometry">
            <mxPoint x="20" y="430" as="sourcePoint" />
            <mxPoint x="180" y="430" as="targetPoint" />
          </mxGeometry>
        </mxCell>
        <mxCell id="pFVaxG2ovcDRRp4HrHUz-188" value="" style="shape=table;html=1;whiteSpace=wrap;startSize=0;container=1;collapsible=0;childLayout=tableLayout;" vertex="1" parent="1">
          <mxGeometry x="290" y="440" width="240" height="160" as="geometry" />
        </mxCell>
        <mxCell id="pFVaxG2ovcDRRp4HrHUz-189" value="" style="shape=partialRectangle;html=1;whiteSpace=wrap;collapsible=0;dropTarget=0;pointerEvents=0;fillColor=none;top=0;left=0;bottom=0;right=0;points=[[0,0.5],[1,0.5]];portConstraint=eastwest;" vertex="1" parent="pFVaxG2ovcDRRp4HrHUz-188">
          <mxGeometry width="240" height="40" as="geometry" />
        </mxCell>
        <mxCell id="pFVaxG2ovcDRRp4HrHUz-190" value="VenueID" style="shape=partialRectangle;html=1;whiteSpace=wrap;connectable=0;overflow=hidden;fillColor=none;top=0;left=0;bottom=0;right=0;fontStyle=5" vertex="1" parent="pFVaxG2ovcDRRp4HrHUz-189">
          <mxGeometry width="60" height="40" as="geometry" />
        </mxCell>
        <mxCell id="pFVaxG2ovcDRRp4HrHUz-191" value="Location" style="shape=partialRectangle;html=1;whiteSpace=wrap;connectable=0;overflow=hidden;fillColor=none;top=0;left=0;bottom=0;right=0;fontStyle=5" vertex="1" parent="pFVaxG2ovcDRRp4HrHUz-189">
          <mxGeometry x="60" width="60" height="40" as="geometry" />
        </mxCell>
        <mxCell id="pFVaxG2ovcDRRp4HrHUz-192" value="Type" style="shape=partialRectangle;html=1;whiteSpace=wrap;connectable=0;overflow=hidden;fillColor=none;top=0;left=0;bottom=0;right=0;" vertex="1" parent="pFVaxG2ovcDRRp4HrHUz-189">
          <mxGeometry x="120" width="60" height="40" as="geometry" />
        </mxCell>
        <mxCell id="pFVaxG2ovcDRRp4HrHUz-193" value="noOfEvents" style="shape=partialRectangle;html=1;whiteSpace=wrap;connectable=0;overflow=hidden;fillColor=none;top=0;left=0;bottom=0;right=0;" vertex="1" parent="pFVaxG2ovcDRRp4HrHUz-189">
          <mxGeometry x="180" width="60" height="40" as="geometry" />
        </mxCell>
        <mxCell id="pFVaxG2ovcDRRp4HrHUz-194" value="" style="shape=partialRectangle;html=1;whiteSpace=wrap;collapsible=0;dropTarget=0;pointerEvents=0;fillColor=none;top=0;left=0;bottom=0;right=0;points=[[0,0.5],[1,0.5]];portConstraint=eastwest;" vertex="1" parent="pFVaxG2ovcDRRp4HrHUz-188">
          <mxGeometry y="40" width="240" height="40" as="geometry" />
        </mxCell>
        <mxCell id="pFVaxG2ovcDRRp4HrHUz-195" value="1" style="shape=partialRectangle;html=1;whiteSpace=wrap;connectable=0;overflow=hidden;fillColor=none;top=0;left=0;bottom=0;right=0;" vertex="1" parent="pFVaxG2ovcDRRp4HrHUz-194">
          <mxGeometry width="60" height="40" as="geometry" />
        </mxCell>
        <mxCell id="pFVaxG2ovcDRRp4HrHUz-196" value="Beijing" style="shape=partialRectangle;html=1;whiteSpace=wrap;connectable=0;overflow=hidden;fillColor=none;top=0;left=0;bottom=0;right=0;" vertex="1" parent="pFVaxG2ovcDRRp4HrHUz-194">
          <mxGeometry x="60" width="60" height="40" as="geometry" />
        </mxCell>
        <mxCell id="pFVaxG2ovcDRRp4HrHUz-197" value="Olympic Stadium" style="shape=partialRectangle;html=1;whiteSpace=wrap;connectable=0;overflow=hidden;fillColor=none;top=0;left=0;bottom=0;right=0;" vertex="1" parent="pFVaxG2ovcDRRp4HrHUz-194">
          <mxGeometry x="120" width="60" height="40" as="geometry" />
        </mxCell>
        <mxCell id="pFVaxG2ovcDRRp4HrHUz-198" value="143" style="shape=partialRectangle;html=1;whiteSpace=wrap;connectable=0;overflow=hidden;fillColor=none;top=0;left=0;bottom=0;right=0;" vertex="1" parent="pFVaxG2ovcDRRp4HrHUz-194">
          <mxGeometry x="180" width="60" height="40" as="geometry" />
        </mxCell>
        <mxCell id="pFVaxG2ovcDRRp4HrHUz-199" value="" style="shape=partialRectangle;html=1;whiteSpace=wrap;collapsible=0;dropTarget=0;pointerEvents=0;fillColor=none;top=0;left=0;bottom=0;right=0;points=[[0,0.5],[1,0.5]];portConstraint=eastwest;" vertex="1" parent="pFVaxG2ovcDRRp4HrHUz-188">
          <mxGeometry y="80" width="240" height="40" as="geometry" />
        </mxCell>
        <mxCell id="pFVaxG2ovcDRRp4HrHUz-200" value="10" style="shape=partialRectangle;html=1;whiteSpace=wrap;connectable=0;overflow=hidden;fillColor=none;top=0;left=0;bottom=0;right=0;" vertex="1" parent="pFVaxG2ovcDRRp4HrHUz-199">
          <mxGeometry width="60" height="40" as="geometry" />
        </mxCell>
        <mxCell id="pFVaxG2ovcDRRp4HrHUz-201" value="Athens" style="shape=partialRectangle;html=1;whiteSpace=wrap;connectable=0;overflow=hidden;fillColor=none;top=0;left=0;bottom=0;right=0;" vertex="1" parent="pFVaxG2ovcDRRp4HrHUz-199">
          <mxGeometry x="60" width="60" height="40" as="geometry" />
        </mxCell>
        <mxCell id="pFVaxG2ovcDRRp4HrHUz-202" value="Velodrome" style="shape=partialRectangle;html=1;whiteSpace=wrap;connectable=0;overflow=hidden;fillColor=none;top=0;left=0;bottom=0;right=0;" vertex="1" parent="pFVaxG2ovcDRRp4HrHUz-199">
          <mxGeometry x="120" width="60" height="40" as="geometry" />
        </mxCell>
        <mxCell id="pFVaxG2ovcDRRp4HrHUz-203" value="15" style="shape=partialRectangle;html=1;whiteSpace=wrap;connectable=0;overflow=hidden;fillColor=none;top=0;left=0;bottom=0;right=0;" vertex="1" parent="pFVaxG2ovcDRRp4HrHUz-199">
          <mxGeometry x="180" width="60" height="40" as="geometry" />
        </mxCell>
        <mxCell id="pFVaxG2ovcDRRp4HrHUz-204" value="" style="shape=partialRectangle;html=1;whiteSpace=wrap;collapsible=0;dropTarget=0;pointerEvents=0;fillColor=none;top=0;left=0;bottom=0;right=0;points=[[0,0.5],[1,0.5]];portConstraint=eastwest;" vertex="1" parent="pFVaxG2ovcDRRp4HrHUz-188">
          <mxGeometry y="120" width="240" height="40" as="geometry" />
        </mxCell>
        <mxCell id="pFVaxG2ovcDRRp4HrHUz-205" value="14" style="shape=partialRectangle;html=1;whiteSpace=wrap;connectable=0;overflow=hidden;fillColor=none;top=0;left=0;bottom=0;right=0;" vertex="1" parent="pFVaxG2ovcDRRp4HrHUz-204">
          <mxGeometry width="60" height="40" as="geometry" />
        </mxCell>
        <mxCell id="pFVaxG2ovcDRRp4HrHUz-206" value="Sydney" style="shape=partialRectangle;html=1;whiteSpace=wrap;connectable=0;overflow=hidden;fillColor=none;top=0;left=0;bottom=0;right=0;" vertex="1" parent="pFVaxG2ovcDRRp4HrHUz-204">
          <mxGeometry x="60" width="60" height="40" as="geometry" />
        </mxCell>
        <mxCell id="pFVaxG2ovcDRRp4HrHUz-207" value="Olympic Stadium" style="shape=partialRectangle;html=1;whiteSpace=wrap;connectable=0;overflow=hidden;fillColor=none;top=0;left=0;bottom=0;right=0;" vertex="1" parent="pFVaxG2ovcDRRp4HrHUz-204">
          <mxGeometry x="120" width="60" height="40" as="geometry" />
        </mxCell>
        <mxCell id="pFVaxG2ovcDRRp4HrHUz-208" value="135" style="shape=partialRectangle;html=1;whiteSpace=wrap;connectable=0;overflow=hidden;fillColor=none;top=0;left=0;bottom=0;right=0;" vertex="1" parent="pFVaxG2ovcDRRp4HrHUz-204">
          <mxGeometry x="180" width="60" height="40" as="geometry" />
        </mxCell>
        <mxCell id="pFVaxG2ovcDRRp4HrHUz-209" value="" style="shape=table;html=1;whiteSpace=wrap;startSize=0;container=1;collapsible=0;childLayout=tableLayout;fontStyle=4" vertex="1" parent="1">
          <mxGeometry x="790" y="40" width="60" height="160" as="geometry" />
        </mxCell>
        <mxCell id="pFVaxG2ovcDRRp4HrHUz-210" value="" style="shape=partialRectangle;html=1;whiteSpace=wrap;collapsible=0;dropTarget=0;pointerEvents=0;fillColor=none;top=0;left=0;bottom=0;right=0;points=[[0,0.5],[1,0.5]];portConstraint=eastwest;" vertex="1" parent="pFVaxG2ovcDRRp4HrHUz-209">
          <mxGeometry width="60" height="40" as="geometry" />
        </mxCell>
        <mxCell id="pFVaxG2ovcDRRp4HrHUz-211" value="Location" style="shape=partialRectangle;html=1;whiteSpace=wrap;connectable=0;overflow=hidden;fillColor=none;top=0;left=0;bottom=0;right=0;fontStyle=5" vertex="1" parent="pFVaxG2ovcDRRp4HrHUz-210">
          <mxGeometry width="60" height="40" as="geometry" />
        </mxCell>
        <mxCell id="pFVaxG2ovcDRRp4HrHUz-212" value="" style="shape=partialRectangle;html=1;whiteSpace=wrap;collapsible=0;dropTarget=0;pointerEvents=0;fillColor=none;top=0;left=0;bottom=0;right=0;points=[[0,0.5],[1,0.5]];portConstraint=eastwest;" vertex="1" parent="pFVaxG2ovcDRRp4HrHUz-209">
          <mxGeometry y="40" width="60" height="40" as="geometry" />
        </mxCell>
        <mxCell id="pFVaxG2ovcDRRp4HrHUz-213" value="Beijing" style="shape=partialRectangle;html=1;whiteSpace=wrap;connectable=0;overflow=hidden;fillColor=none;top=0;left=0;bottom=0;right=0;" vertex="1" parent="pFVaxG2ovcDRRp4HrHUz-212">
          <mxGeometry width="60" height="40" as="geometry" />
        </mxCell>
        <mxCell id="pFVaxG2ovcDRRp4HrHUz-214" value="" style="shape=partialRectangle;html=1;whiteSpace=wrap;collapsible=0;dropTarget=0;pointerEvents=0;fillColor=none;top=0;left=0;bottom=0;right=0;points=[[0,0.5],[1,0.5]];portConstraint=eastwest;" vertex="1" parent="pFVaxG2ovcDRRp4HrHUz-209">
          <mxGeometry y="80" width="60" height="40" as="geometry" />
        </mxCell>
        <mxCell id="pFVaxG2ovcDRRp4HrHUz-215" value="Canada" style="shape=partialRectangle;html=1;whiteSpace=wrap;connectable=0;overflow=hidden;fillColor=none;top=0;left=0;bottom=0;right=0;" vertex="1" parent="pFVaxG2ovcDRRp4HrHUz-214">
          <mxGeometry width="60" height="40" as="geometry" />
        </mxCell>
        <mxCell id="pFVaxG2ovcDRRp4HrHUz-216" value="" style="shape=partialRectangle;html=1;whiteSpace=wrap;collapsible=0;dropTarget=0;pointerEvents=0;fillColor=none;top=0;left=0;bottom=0;right=0;points=[[0,0.5],[1,0.5]];portConstraint=eastwest;" vertex="1" parent="pFVaxG2ovcDRRp4HrHUz-209">
          <mxGeometry y="120" width="60" height="40" as="geometry" />
        </mxCell>
        <mxCell id="pFVaxG2ovcDRRp4HrHUz-217" value="Sydney" style="shape=partialRectangle;html=1;whiteSpace=wrap;connectable=0;overflow=hidden;fillColor=none;top=0;left=0;bottom=0;right=0;" vertex="1" parent="pFVaxG2ovcDRRp4HrHUz-216">
          <mxGeometry width="60" height="40" as="geometry" />
        </mxCell>
        <mxCell id="pFVaxG2ovcDRRp4HrHUz-218" value="Venues" style="text;html=1;strokeColor=none;fillColor=none;align=center;verticalAlign=middle;whiteSpace=wrap;rounded=0;fontStyle=1" vertex="1" parent="1">
          <mxGeometry x="330" y="420" width="40" height="20" as="geometry" />
        </mxCell>
        <mxCell id="pFVaxG2ovcDRRp4HrHUz-221" value="" style="shape=table;html=1;whiteSpace=wrap;startSize=0;container=1;collapsible=0;childLayout=tableLayout;" vertex="1" parent="1">
          <mxGeometry x="420" y="240" width="240" height="160" as="geometry" />
        </mxCell>
        <mxCell id="pFVaxG2ovcDRRp4HrHUz-222" value="" style="shape=partialRectangle;html=1;whiteSpace=wrap;collapsible=0;dropTarget=0;pointerEvents=0;fillColor=none;top=0;left=0;bottom=0;right=0;points=[[0,0.5],[1,0.5]];portConstraint=eastwest;" vertex="1" parent="pFVaxG2ovcDRRp4HrHUz-221">
          <mxGeometry width="240" height="40" as="geometry" />
        </mxCell>
        <mxCell id="pFVaxG2ovcDRRp4HrHUz-223" value="VenueID" style="shape=partialRectangle;html=1;whiteSpace=wrap;connectable=0;overflow=hidden;fillColor=none;top=0;left=0;bottom=0;right=0;fontStyle=5" vertex="1" parent="pFVaxG2ovcDRRp4HrHUz-222">
          <mxGeometry width="60" height="40" as="geometry" />
        </mxCell>
        <mxCell id="pFVaxG2ovcDRRp4HrHUz-224" value="&lt;u&gt;EventID&lt;/u&gt;" style="shape=partialRectangle;html=1;whiteSpace=wrap;connectable=0;overflow=hidden;fillColor=none;top=0;left=0;bottom=0;right=0;fontStyle=1" vertex="1" parent="pFVaxG2ovcDRRp4HrHUz-222">
          <mxGeometry x="60" width="60" height="40" as="geometry" />
        </mxCell>
        <mxCell id="pFVaxG2ovcDRRp4HrHUz-225" value="Date" style="shape=partialRectangle;html=1;whiteSpace=wrap;connectable=0;overflow=hidden;fillColor=none;top=0;left=0;bottom=0;right=0;" vertex="1" parent="pFVaxG2ovcDRRp4HrHUz-222">
          <mxGeometry x="120" width="60" height="40" as="geometry" />
        </mxCell>
        <mxCell id="pFVaxG2ovcDRRp4HrHUz-226" value="Time" style="shape=partialRectangle;html=1;whiteSpace=wrap;connectable=0;overflow=hidden;fillColor=none;top=0;left=0;bottom=0;right=0;" vertex="1" parent="pFVaxG2ovcDRRp4HrHUz-222">
          <mxGeometry x="180" width="60" height="40" as="geometry" />
        </mxCell>
        <mxCell id="pFVaxG2ovcDRRp4HrHUz-228" value="" style="shape=partialRectangle;html=1;whiteSpace=wrap;collapsible=0;dropTarget=0;pointerEvents=0;fillColor=none;top=0;left=0;bottom=0;right=0;points=[[0,0.5],[1,0.5]];portConstraint=eastwest;" vertex="1" parent="pFVaxG2ovcDRRp4HrHUz-221">
          <mxGeometry y="40" width="240" height="40" as="geometry" />
        </mxCell>
        <mxCell id="pFVaxG2ovcDRRp4HrHUz-229" value="14" style="shape=partialRectangle;html=1;whiteSpace=wrap;connectable=0;overflow=hidden;fillColor=none;top=0;left=0;bottom=0;right=0;" vertex="1" parent="pFVaxG2ovcDRRp4HrHUz-228">
          <mxGeometry width="60" height="40" as="geometry" />
        </mxCell>
        <mxCell id="pFVaxG2ovcDRRp4HrHUz-230" value="167" style="shape=partialRectangle;html=1;whiteSpace=wrap;connectable=0;overflow=hidden;fillColor=none;top=0;left=0;bottom=0;right=0;" vertex="1" parent="pFVaxG2ovcDRRp4HrHUz-228">
          <mxGeometry x="60" width="60" height="40" as="geometry" />
        </mxCell>
        <mxCell id="pFVaxG2ovcDRRp4HrHUz-231" value="2000-09-19" style="shape=partialRectangle;html=1;whiteSpace=wrap;connectable=0;overflow=hidden;fillColor=none;top=0;left=0;bottom=0;right=0;" vertex="1" parent="pFVaxG2ovcDRRp4HrHUz-228">
          <mxGeometry x="120" width="60" height="40" as="geometry" />
        </mxCell>
        <mxCell id="pFVaxG2ovcDRRp4HrHUz-232" value="18:30" style="shape=partialRectangle;html=1;whiteSpace=wrap;connectable=0;overflow=hidden;fillColor=none;top=0;left=0;bottom=0;right=0;" vertex="1" parent="pFVaxG2ovcDRRp4HrHUz-228">
          <mxGeometry x="180" width="60" height="40" as="geometry" />
        </mxCell>
        <mxCell id="pFVaxG2ovcDRRp4HrHUz-234" value="" style="shape=partialRectangle;html=1;whiteSpace=wrap;collapsible=0;dropTarget=0;pointerEvents=0;fillColor=none;top=0;left=0;bottom=0;right=0;points=[[0,0.5],[1,0.5]];portConstraint=eastwest;" vertex="1" parent="pFVaxG2ovcDRRp4HrHUz-221">
          <mxGeometry y="80" width="240" height="40" as="geometry" />
        </mxCell>
        <mxCell id="pFVaxG2ovcDRRp4HrHUz-235" value="10" style="shape=partialRectangle;html=1;whiteSpace=wrap;connectable=0;overflow=hidden;fillColor=none;top=0;left=0;bottom=0;right=0;" vertex="1" parent="pFVaxG2ovcDRRp4HrHUz-234">
          <mxGeometry width="60" height="40" as="geometry" />
        </mxCell>
        <mxCell id="pFVaxG2ovcDRRp4HrHUz-236" value="311" style="shape=partialRectangle;html=1;whiteSpace=wrap;connectable=0;overflow=hidden;fillColor=none;top=0;left=0;bottom=0;right=0;" vertex="1" parent="pFVaxG2ovcDRRp4HrHUz-234">
          <mxGeometry x="60" width="60" height="40" as="geometry" />
        </mxCell>
        <mxCell id="pFVaxG2ovcDRRp4HrHUz-237" value="2004-08-14" style="shape=partialRectangle;html=1;whiteSpace=wrap;connectable=0;overflow=hidden;fillColor=none;top=0;left=0;bottom=0;right=0;" vertex="1" parent="pFVaxG2ovcDRRp4HrHUz-234">
          <mxGeometry x="120" width="60" height="40" as="geometry" />
        </mxCell>
        <mxCell id="pFVaxG2ovcDRRp4HrHUz-238" value="7:40" style="shape=partialRectangle;html=1;whiteSpace=wrap;connectable=0;overflow=hidden;fillColor=none;top=0;left=0;bottom=0;right=0;" vertex="1" parent="pFVaxG2ovcDRRp4HrHUz-234">
          <mxGeometry x="180" width="60" height="40" as="geometry" />
        </mxCell>
        <mxCell id="pFVaxG2ovcDRRp4HrHUz-240" value="" style="shape=partialRectangle;html=1;whiteSpace=wrap;collapsible=0;dropTarget=0;pointerEvents=0;fillColor=none;top=0;left=0;bottom=0;right=0;points=[[0,0.5],[1,0.5]];portConstraint=eastwest;" vertex="1" parent="pFVaxG2ovcDRRp4HrHUz-221">
          <mxGeometry y="120" width="240" height="40" as="geometry" />
        </mxCell>
        <mxCell id="pFVaxG2ovcDRRp4HrHUz-241" value="1" style="shape=partialRectangle;html=1;whiteSpace=wrap;connectable=0;overflow=hidden;fillColor=none;top=0;left=0;bottom=0;right=0;" vertex="1" parent="pFVaxG2ovcDRRp4HrHUz-240">
          <mxGeometry width="60" height="40" as="geometry" />
        </mxCell>
        <mxCell id="pFVaxG2ovcDRRp4HrHUz-242" value="244" style="shape=partialRectangle;html=1;whiteSpace=wrap;connectable=0;overflow=hidden;fillColor=none;top=0;left=0;bottom=0;right=0;" vertex="1" parent="pFVaxG2ovcDRRp4HrHUz-240">
          <mxGeometry x="60" width="60" height="40" as="geometry" />
        </mxCell>
        <mxCell id="pFVaxG2ovcDRRp4HrHUz-243" value="2008-08-11" style="shape=partialRectangle;html=1;whiteSpace=wrap;connectable=0;overflow=hidden;fillColor=none;top=0;left=0;bottom=0;right=0;" vertex="1" parent="pFVaxG2ovcDRRp4HrHUz-240">
          <mxGeometry x="120" width="60" height="40" as="geometry" />
        </mxCell>
        <mxCell id="pFVaxG2ovcDRRp4HrHUz-244" value="20:15" style="shape=partialRectangle;html=1;whiteSpace=wrap;connectable=0;overflow=hidden;fillColor=none;top=0;left=0;bottom=0;right=0;" vertex="1" parent="pFVaxG2ovcDRRp4HrHUz-240">
          <mxGeometry x="180" width="60" height="40" as="geometry" />
        </mxCell>
        <mxCell id="pFVaxG2ovcDRRp4HrHUz-246" value="Held At" style="text;html=1;strokeColor=none;fillColor=none;align=center;verticalAlign=middle;whiteSpace=wrap;rounded=0;fontStyle=1" vertex="1" parent="1">
          <mxGeometry x="425" y="220" width="60" height="20" as="geometry" />
        </mxCell>
        <mxCell id="pFVaxG2ovcDRRp4HrHUz-247" style="edgeStyle=orthogonalEdgeStyle;rounded=0;orthogonalLoop=1;jettySize=auto;html=1;entryX=0.821;entryY=0;entryDx=0;entryDy=0;entryPerimeter=0;startArrow=ERmandOne;startFill=0;endArrow=ERmandOne;endFill=0;" edge="1" parent="1" target="pFVaxG2ovcDRRp4HrHUz-38">
          <mxGeometry relative="1" as="geometry">
            <mxPoint x="580" y="40" as="sourcePoint" />
            <Array as="points">
              <mxPoint x="580" y="20" />
              <mxPoint x="515" y="20" />
            </Array>
          </mxGeometry>
        </mxCell>
        <mxCell id="pFVaxG2ovcDRRp4HrHUz-248" style="edgeStyle=orthogonalEdgeStyle;orthogonalLoop=1;jettySize=auto;html=1;exitX=0.25;exitY=0.05;exitDx=0;exitDy=0;entryX=0.139;entryY=1.025;entryDx=0;entryDy=0;entryPerimeter=0;startArrow=ERmandOne;startFill=0;endArrow=ERmandOne;endFill=0;exitPerimeter=0;rounded=0;" edge="1" parent="1" source="pFVaxG2ovcDRRp4HrHUz-153" target="pFVaxG2ovcDRRp4HrHUz-70">
          <mxGeometry relative="1" as="geometry">
            <Array as="points">
              <mxPoint x="760" y="230" />
              <mxPoint x="592" y="230" />
            </Array>
          </mxGeometry>
        </mxCell>
        <mxCell id="pFVaxG2ovcDRRp4HrHUz-249" style="edgeStyle=orthogonalEdgeStyle;rounded=0;orthogonalLoop=1;jettySize=auto;html=1;startArrow=ERmany;startFill=0;endArrow=ERmandOne;endFill=0;" edge="1" parent="1" target="pFVaxG2ovcDRRp4HrHUz-135">
          <mxGeometry relative="1" as="geometry">
            <mxPoint x="810" y="400" as="sourcePoint" />
            <Array as="points">
              <mxPoint x="810" y="420" />
              <mxPoint x="650" y="420" />
            </Array>
          </mxGeometry>
        </mxCell>
        <mxCell id="pFVaxG2ovcDRRp4HrHUz-250" value="" style="shape=table;html=1;whiteSpace=wrap;startSize=0;container=1;collapsible=0;childLayout=tableLayout;" vertex="1" parent="1">
          <mxGeometry x="340" y="240" width="70" height="160" as="geometry" />
        </mxCell>
        <mxCell id="pFVaxG2ovcDRRp4HrHUz-251" value="" style="shape=partialRectangle;html=1;whiteSpace=wrap;collapsible=0;dropTarget=0;pointerEvents=0;fillColor=none;top=0;left=0;bottom=0;right=0;points=[[0,0.5],[1,0.5]];portConstraint=eastwest;" vertex="1" parent="pFVaxG2ovcDRRp4HrHUz-250">
          <mxGeometry width="70" height="40" as="geometry" />
        </mxCell>
        <mxCell id="pFVaxG2ovcDRRp4HrHUz-252" value="Placement" style="shape=partialRectangle;html=1;whiteSpace=wrap;connectable=0;overflow=hidden;fillColor=none;top=0;left=0;bottom=0;right=0;" vertex="1" parent="pFVaxG2ovcDRRp4HrHUz-251">
          <mxGeometry width="70" height="40" as="geometry" />
        </mxCell>
        <mxCell id="pFVaxG2ovcDRRp4HrHUz-253" value="" style="shape=partialRectangle;html=1;whiteSpace=wrap;collapsible=0;dropTarget=0;pointerEvents=0;fillColor=none;top=0;left=0;bottom=0;right=0;points=[[0,0.5],[1,0.5]];portConstraint=eastwest;" vertex="1" parent="pFVaxG2ovcDRRp4HrHUz-250">
          <mxGeometry y="40" width="70" height="40" as="geometry" />
        </mxCell>
        <mxCell id="pFVaxG2ovcDRRp4HrHUz-254" value="1st" style="shape=partialRectangle;html=1;whiteSpace=wrap;connectable=0;overflow=hidden;fillColor=none;top=0;left=0;bottom=0;right=0;" vertex="1" parent="pFVaxG2ovcDRRp4HrHUz-253">
          <mxGeometry width="70" height="40" as="geometry" />
        </mxCell>
        <mxCell id="pFVaxG2ovcDRRp4HrHUz-255" value="" style="shape=partialRectangle;html=1;whiteSpace=wrap;collapsible=0;dropTarget=0;pointerEvents=0;fillColor=none;top=0;left=0;bottom=0;right=0;points=[[0,0.5],[1,0.5]];portConstraint=eastwest;" vertex="1" parent="pFVaxG2ovcDRRp4HrHUz-250">
          <mxGeometry y="80" width="70" height="40" as="geometry" />
        </mxCell>
        <mxCell id="pFVaxG2ovcDRRp4HrHUz-256" value="10th" style="shape=partialRectangle;html=1;whiteSpace=wrap;connectable=0;overflow=hidden;fillColor=none;top=0;left=0;bottom=0;right=0;" vertex="1" parent="pFVaxG2ovcDRRp4HrHUz-255">
          <mxGeometry width="70" height="40" as="geometry" />
        </mxCell>
        <mxCell id="pFVaxG2ovcDRRp4HrHUz-257" value="" style="shape=partialRectangle;html=1;whiteSpace=wrap;collapsible=0;dropTarget=0;pointerEvents=0;fillColor=none;top=0;left=0;bottom=0;right=0;points=[[0,0.5],[1,0.5]];portConstraint=eastwest;" vertex="1" parent="pFVaxG2ovcDRRp4HrHUz-250">
          <mxGeometry y="120" width="70" height="40" as="geometry" />
        </mxCell>
        <mxCell id="pFVaxG2ovcDRRp4HrHUz-258" value="9-16" style="shape=partialRectangle;html=1;whiteSpace=wrap;connectable=0;overflow=hidden;fillColor=none;top=0;left=0;bottom=0;right=0;" vertex="1" parent="pFVaxG2ovcDRRp4HrHUz-257">
          <mxGeometry width="70" height="40" as="geometry" />
        </mxCell>
        <mxCell id="pFVaxG2ovcDRRp4HrHUz-259" value="" style="endArrow=ERoneToMany;html=1;startArrow=ERzeroToOne;startFill=1;endFill=0;entryX=0.308;entryY=-0.01;entryDx=0;entryDy=0;entryPerimeter=0;rounded=0;" edge="1" parent="1" target="pFVaxG2ovcDRRp4HrHUz-222">
          <mxGeometry width="50" height="50" relative="1" as="geometry">
            <mxPoint x="470" y="201" as="sourcePoint" />
            <mxPoint x="570" y="190" as="targetPoint" />
            <Array as="points">
              <mxPoint x="470" y="220" />
              <mxPoint x="494" y="220" />
            </Array>
          </mxGeometry>
        </mxCell>
        <mxCell id="pFVaxG2ovcDRRp4HrHUz-263" value="" style="endArrow=ERmany;html=1;rounded=0;exitX=0.6;exitY=1.025;exitDx=0;exitDy=0;exitPerimeter=0;startArrow=ERmandOne;startFill=0;endFill=0;entryX=0.367;entryY=0;entryDx=0;entryDy=0;entryPerimeter=0;" edge="1" parent="1" source="pFVaxG2ovcDRRp4HrHUz-216" target="pFVaxG2ovcDRRp4HrHUz-189">
          <mxGeometry relative="1" as="geometry">
            <mxPoint x="390" y="330" as="sourcePoint" />
            <mxPoint x="419" y="430" as="targetPoint" />
            <Array as="points">
              <mxPoint x="826" y="220" />
              <mxPoint x="680" y="220" />
              <mxPoint x="680" y="410" />
              <mxPoint x="540" y="410" />
              <mxPoint x="378" y="410" />
            </Array>
          </mxGeometry>
        </mxCell>
        <mxCell id="pFVaxG2ovcDRRp4HrHUz-264" value="" style="endArrow=ERmandOne;html=1;rounded=0;entryX=0.125;entryY=1;entryDx=0;entryDy=0;entryPerimeter=0;exitX=0.113;exitY=-0.025;exitDx=0;exitDy=0;exitPerimeter=0;startArrow=ERmandOne;startFill=0;endFill=0;" edge="1" parent="1" source="pFVaxG2ovcDRRp4HrHUz-189" target="pFVaxG2ovcDRRp4HrHUz-240">
          <mxGeometry relative="1" as="geometry">
            <mxPoint x="350" y="430" as="sourcePoint" />
            <mxPoint x="510" y="430" as="targetPoint" />
            <Array as="points">
              <mxPoint x="317" y="420" />
              <mxPoint x="450" y="420" />
            </Array>
          </mxGeometry>
        </mxCell>
        <mxCell id="pFVaxG2ovcDRRp4HrHUz-265" value="" style="endArrow=ERmandOne;html=1;rounded=0;exitX=0.872;exitY=-0.025;exitDx=0;exitDy=0;exitPerimeter=0;entryX=0.414;entryY=1.025;entryDx=0;entryDy=0;entryPerimeter=0;startArrow=ERmandOne;startFill=0;endFill=0;" edge="1" parent="1" source="pFVaxG2ovcDRRp4HrHUz-166" target="pFVaxG2ovcDRRp4HrHUz-50">
          <mxGeometry relative="1" as="geometry">
            <mxPoint x="350" y="230" as="sourcePoint" />
            <mxPoint x="510" y="230" as="targetPoint" />
            <Array as="points">
              <mxPoint x="317" y="220" />
              <mxPoint x="458" y="220" />
            </Array>
          </mxGeometry>
        </mxCell>
        <mxCell id="pFVaxG2ovcDRRp4HrHUz-267" value="" style="endArrow=ERmandOne;html=1;rounded=0;entryX=0.094;entryY=0;entryDx=0;entryDy=0;entryPerimeter=0;exitX=0.396;exitY=1;exitDx=0;exitDy=0;exitPerimeter=0;startArrow=ERmandOne;startFill=0;endFill=0;" edge="1" parent="1" source="pFVaxG2ovcDRRp4HrHUz-240" target="pFVaxG2ovcDRRp4HrHUz-135">
          <mxGeometry relative="1" as="geometry">
            <mxPoint x="340" y="370" as="sourcePoint" />
            <mxPoint x="500" y="370" as="targetPoint" />
            <Array as="points">
              <mxPoint x="515" y="420" />
              <mxPoint x="627" y="420" />
            </Array>
          </mxGeometry>
        </mxCell>
      </root>
    </mxGraphModel>
  </diagram>
</mxfile>
